<svg xmlns="http://www.w3.org/2000/svg" xml:space="preserve" width="200mm" height="200mm" viewBox="0 0 200 200"><path d="M108.386 116.672a789 789 0 0 0-2.288-1.371c-.514-.307-2.197-1.164-3.74-1.906-10.072-4.841-11.61-5.758-15.08-8.995-1.054-.982-3.721-4.443-6.033-7.826-1.673-2.449-2.42-3.206-4.31-4.366-3.496-2.148-5.102-3.667-8.11-7.673-2.044-2.721-2.531-3.285-3.795-4.392-2.288-2.004-4.794-3.105-7.626-3.35-2.538-.221-10.927.128-10.927.454 0 .06.462.484 1.027.942 1.565 1.269 3.15 3.032 5.617 6.253 2.61 3.406 5.22 6.032 7.53 7.58 1.807 1.208 6.348 3.465 8.385 4.165 1.204.414 1.473.565 1.473.827 0 .302-.068.315-1.136.216-2.54-.236-5.309-.992-8.179-2.233-3.697-1.598-6.545-3.864-10.21-8.123-4.747-5.516-7.409-7.304-11.73-7.879-2.26-.3-4.057.04-8.453 1.599-4.814 1.707-13.823 4.439-19.337 5.864-5.03 1.3-5.972 1.365-6.526.455-.463-.76-.923-2.732-1.103-4.73-.197-2.17-.061-2.905.6-3.246.238-.124 2.258-.487 4.488-.807 6.919-.994 11.953-2.109 18.695-4.142C35.384 71.645 39.1 70.92 48.41 69.93c9.781-1.038 10.719-1.361 13.088-4.51 1.327-1.763 2.124-3.151 3.383-5.886 1.523-3.313 1.97-4.042 3.399-5.552 2.113-2.233 3.2-2.946 8.912-5.851 2.144-1.09 5.113-2.754 6.596-3.696 1.484-.941 2.898-1.752 3.144-1.801.398-.08.445-.045.445.332 0 .595-2.201 2.847-3.954 4.045-.757.518-2.845 1.783-4.64 2.81-3.904 2.238-6.072 3.736-7.516 5.191-1.25 1.262-2.048 2.792-3.593 6.894-.527 1.4-1.11 2.894-1.294 3.322-.185.428-.304.811-.263.851.116.117 3.313-.866 5.664-1.74 3.263-1.214 5.484-2.232 13.289-6.092 8.076-3.993 7.954-3.939 12.56-5.628 1.854-.68 3.87-1.529 4.481-1.885 4.925-2.874 14.6-11.73 20.072-18.371 4.944-6.003 5.737-6.854 7.887-8.47 2.917-2.19 9.18-4.891 14.585-6.29 1.865-.482 2.403-.484 2.403-.008q0 .627-4.32 2.582c-4.277 1.935-7.615 3.618-9.002 4.537-2.47 1.638-3.956 3.252-7.375 8.011-4.428 6.164-6.366 8.45-11.831 13.954-3.151 3.174-3.19 3.22-2.642 3.22.876 0 3.058-.42 5.812-1.119 3.403-.862 4.693-1.269 8.356-2.633 5.544-2.066 9.866-4.158 15.978-7.735 1.494-.875 4.507-2.63 6.695-3.899 9.52-5.523 11.776-6.942 14.016-8.822 1.856-1.558 2.844-2.624 5.499-5.93 2.958-3.686 5.271-5.873 8.642-8.169 1.27-.866 2.345-1.318 2.578-1.085.226.225-.606 1.22-2.678 3.207-2.785 2.67-4.162 4.266-6.409 7.428-4.377 6.16-6.249 7.95-13.133 12.562a273 273 0 0 1-6.333 4.082c-1.864 1.16-4.442 2.8-5.73 3.644-2.24 1.469-2.32 1.54-1.863 1.644.762.174 9.975.162 12.334-.016 6.128-.463 11.332-1.69 14.369-3.39.593-.332 2.384-1.586 3.978-2.787 5.047-3.8 7.448-5.351 11.176-7.217 5.011-2.508 11.278-4.424 11.786-3.603.197.319-.3.591-3.908 2.137-6.664 2.854-10.058 4.916-16.283 9.89-3.526 2.819-4.718 3.661-6.416 4.533-4.45 2.288-12.723 3.767-21.147 3.781-5.67.01-9.93.455-13.54 1.414-1.068.283-2.953.998-4.775 1.812-3.88 1.73-7.334 3.115-9.536 3.82-1.582.507-6.674 1.704-9.31 2.19-.57.104-1.13.24-1.245.3-.126.065.568.44 1.736.939 4.033 1.72 7.994 2.795 10.888 2.956 12.088.67 16.066.691 19.893.104 3.176-.487 5.554-1.263 9.741-3.177 3.017-1.379 4.822-1.863 4.822-1.294 0 .402-2.492 2.035-5.113 3.35-4.437 2.224-7.168 3.025-13.03 3.82-2.092.285-3.55.348-9.586.417-9.04.104-10.192-.024-16.239-1.795-5.6-1.64-7.892-2.165-9.834-2.252-3.6-.163-6.151.658-15.19 4.885-8.607 4.026-11.808 5.311-19.88 7.983-2.62.867-4.86 1.63-4.978 1.696-.153.086.424.701 1.976 2.11 2.155 1.955 3.819 3.678 5.805 6.01 1.45 1.702 1.79 1.844 4.425 1.84 1.916-.004 2.346-.059 3.979-.51 3.248-.895 5.515-1.987 11.458-5.519 3.686-2.19 6.52-3.404 10.414-4.464 4.348-1.184 10.954-1.704 11.984-.944.634.468-.238.745-4.97 1.583-3.802.674-4.876.96-7.727 2.068-3.265 1.268-5.093 2.247-11.133 5.962-4.103 2.523-8.407 4.347-12.005 5.085-.869.179-1.611.356-1.65.394-.11.11.92 1.003 1.958 1.695 1.504 1.003 4.653 2.481 6.047 2.84 1.842.472 4.304.759 8.197.953 6.335.317 9.632.737 13.785 1.758 2.208.543 6.626 2.016 9.53 3.179 2.78 1.113 9.908 4.312 11.13 4.994 1.15.643 1.694 1.256 1.386 1.564-.244.244-.357.208-6.628-2.106-10.364-3.824-13.504-4.781-18.222-5.555-3.231-.53-5.197-.65-10.722-.65-3.915 0-5.652-.062-6.901-.247-.918-.136-1.702-.215-1.742-.175-.168.168 1.08 2.238 2.89 4.796 1.091 1.54 3.184 3.782 4.372 4.68 2.439 1.847 5.37 3.615 10.034 6.05 4.073 2.127 6.656 3.794 7.775 5.018.837.914 1.049 1.506.54 1.506-.153 0-.887-.367-1.63-.814" style="fill:#fff"/><path d="M108.732 181.26c-3.34-2.147-5.27-6.72-9.678-6.798-1.74-3.72-2.262-9.329-7.831-6.446-3.594-.556-.928-6.012-3.278-8.422 1.428-2.757 1.117-4.298-1.29-6.502-1.932-3.825 9.517.48 4.885-3.665-2.233-4.097-8.846-9.04-7.147-13.294 4.262 1.229 4.684 7.767 7.962 10.778 1.15 3.133 4.156 3.38 3.96-.493 1.227-2.668 4.55-9.313 7.147-7.55-.818 4.415 3.987 6.027 6.109 2.005 2.165-3.068 4.002-.432 4.63.77 2.78.26 8.227.056 9.076 1.366-.036 3.302-6.88 6.962-4.452 8.641 2.909.88 11.105-1.259 8.3 3.602 1.437 3.016 7.865 4.318 6.777 7.659-2.855.682-7.342 1.602-8.067 4.16-1.913-.412-10.283-2.564-4.977.603 2.427 1.312 6.159 3.363 4.282 5.726 2.08 1.574 6.657 7.64.824 5.053-2.754-.193-6.72-1.793-7.829.67-2.446-.91-7.16-5.997-7.759-4.328 1.237 2.63.622 5.671.557 8.145-.976-.088-1.567-1.057-2.201-1.68m49.794-54.914c.958-2.214 6.222-7.752.45-4.633-3.66 1.606-11.36 6.558-13.466 2.434 3.691-2.233 8.803-1.197 12.482-4.099 6.01-3.181-8.263-2.158-2.535-5.692-1.926-2.326-7.291-8.041-.77-6.934 2.428-1.288 8.68.213 8.478-1.152-2.358-2.545-4.732-6.42-.59-7.021.126-2.87-.26-8.85 3.83-5.027 2.47 1.959 4.635 1.506 6.49.828 1.241 2.106 3.406 9.271 3.856 3 .053-3.881 4.077-1.737 4.736-5.617 4.19-7.016 2.556 8.232 7.82 5.106-.017 2.185-3.588 7.182.311 3.709 2.747 3.376-3.434 9.554-6.364 12.319-6.774 6.359-15.285 11.952-24.728 12.78" style="fill:#fff"/></svg>