<?xml version="1.0" encoding="UTF-8" standalone="no"?>
<svg
   xml:space="preserve"
   width="200mm"
   height="200mm"
   viewBox="0 0 200 200"
   version="1.1"
   id="svg2"
   xmlns="http://www.w3.org/2000/svg"
   xmlns:svg="http://www.w3.org/2000/svg"><defs
     id="defs2" /><path
     d="M108.386 116.672a789 789 0 0 0-2.288-1.371c-.514-.307-2.197-1.164-3.74-1.906-10.072-4.841-11.61-5.758-15.08-8.995-1.054-.982-3.721-4.443-6.033-7.826-1.673-2.449-2.42-3.206-4.31-4.366-3.496-2.148-5.102-3.667-8.11-7.673-2.044-2.721-2.531-3.285-3.795-4.392-2.288-2.004-4.794-3.105-7.626-3.35-2.538-.221-10.927.128-10.927.454 0 .06.462.484 1.027.942 1.565 1.269 3.15 3.032 5.617 6.253 2.61 3.406 5.22 6.032 7.53 7.58 1.807 1.208 6.348 3.465 8.385 4.165 1.204.414 1.473.565 1.473.827 0 .302-.068.315-1.136.216-2.54-.236-5.309-.992-8.179-2.233-3.697-1.598-6.545-3.864-10.21-8.123-4.747-5.516-7.409-7.304-11.73-7.879-2.26-.3-4.057.04-8.453 1.599-4.814 1.707-13.823 4.439-19.337 5.864-5.03 1.3-5.972 1.365-6.526.455-.463-.76-.923-2.732-1.103-4.73-.197-2.17-.061-2.905.6-3.246.238-.124 2.258-.487 4.488-.807 6.919-.994 11.953-2.109 18.695-4.142C35.384 71.645 39.1 70.92 48.41 69.93c9.781-1.038 10.719-1.361 13.088-4.51 1.327-1.763 2.124-3.151 3.383-5.886 1.523-3.313 1.97-4.042 3.399-5.552 2.113-2.233 3.2-2.946 8.912-5.851 2.144-1.09 5.113-2.754 6.596-3.696 1.484-.941 2.898-1.752 3.144-1.801.398-.08.445-.045.445.332 0 .595-2.201 2.847-3.954 4.045-.757.518-2.845 1.783-4.64 2.81-3.904 2.238-6.072 3.736-7.516 5.191-1.25 1.262-2.048 2.792-3.593 6.894-.527 1.4-1.11 2.894-1.294 3.322-.185.428-.304.811-.263.851.116.117 3.313-.866 5.664-1.74 3.263-1.214 5.484-2.232 13.289-6.092 8.076-3.993 7.954-3.939 12.56-5.628 1.854-.68 3.87-1.529 4.481-1.885 4.925-2.874 14.6-11.73 20.072-18.371 4.944-6.003 5.737-6.854 7.887-8.47 2.917-2.19 9.18-4.891 14.585-6.29 1.865-.482 2.403-.484 2.403-.008q0 .627-4.32 2.582c-4.277 1.935-7.615 3.618-9.002 4.537-2.47 1.638-3.956 3.252-7.375 8.011-4.428 6.164-6.366 8.45-11.831 13.954-3.151 3.174-3.19 3.22-2.642 3.22.876 0 3.058-.42 5.812-1.119 3.403-.862 4.693-1.269 8.356-2.633 5.544-2.066 9.866-4.158 15.978-7.735 1.494-.875 4.507-2.63 6.695-3.899 9.52-5.523 11.776-6.942 14.016-8.822 1.856-1.558 2.844-2.624 5.499-5.93 2.958-3.686 5.271-5.873 8.642-8.169 1.27-.866 2.345-1.318 2.578-1.085.226.225-.606 1.22-2.678 3.207-2.785 2.67-4.162 4.266-6.409 7.428-4.377 6.16-6.249 7.95-13.133 12.562a273 273 0 0 1-6.333 4.082c-1.864 1.16-4.442 2.8-5.73 3.644-2.24 1.469-2.32 1.54-1.863 1.644.762.174 9.975.162 12.334-.016 6.128-.463 11.332-1.69 14.369-3.39.593-.332 2.384-1.586 3.978-2.787 5.047-3.8 7.448-5.351 11.176-7.217 5.011-2.508 11.278-4.424 11.786-3.603.197.319-.3.591-3.908 2.137-6.664 2.854-10.058 4.916-16.283 9.89-3.526 2.819-4.718 3.661-6.416 4.533-4.45 2.288-12.723 3.767-21.147 3.781-5.67.01-9.93.455-13.54 1.414-1.068.283-2.953.998-4.775 1.812-3.88 1.73-7.334 3.115-9.536 3.82-1.582.507-6.674 1.704-9.31 2.19-.57.104-1.13.24-1.245.3-.126.065.568.44 1.736.939 4.033 1.72 7.994 2.795 10.888 2.956 12.088.67 16.066.691 19.893.104 3.176-.487 5.554-1.263 9.741-3.177 3.017-1.379 4.822-1.863 4.822-1.294 0 .402-2.492 2.035-5.113 3.35-4.437 2.224-7.168 3.025-13.03 3.82-2.092.285-3.55.348-9.586.417-9.04.104-10.192-.024-16.239-1.795-5.6-1.64-7.892-2.165-9.834-2.252-3.6-.163-6.151.658-15.19 4.885-8.607 4.026-11.808 5.311-19.88 7.983-2.62.867-4.86 1.63-4.978 1.696-.153.086.424.701 1.976 2.11 2.155 1.955 3.819 3.678 5.805 6.01 1.45 1.702 1.79 1.844 4.425 1.84 1.916-.004 2.346-.059 3.979-.51 3.248-.895 5.515-1.987 11.458-5.519 3.686-2.19 6.52-3.404 10.414-4.464 4.348-1.184 10.954-1.704 11.984-.944.634.468-.238.745-4.97 1.583-3.802.674-4.876.96-7.727 2.068-3.265 1.268-5.093 2.247-11.133 5.962-4.103 2.523-8.407 4.347-12.005 5.085-.869.179-1.611.356-1.65.394-.11.11.92 1.003 1.958 1.695 1.504 1.003 4.653 2.481 6.047 2.84 1.842.472 4.304.759 8.197.953 6.335.317 9.632.737 13.785 1.758 2.208.543 6.626 2.016 9.53 3.179 2.78 1.113 9.908 4.312 11.13 4.994 1.15.643 1.694 1.256 1.386 1.564-.244.244-.357.208-6.628-2.106-10.364-3.824-13.504-4.781-18.222-5.555-3.231-.53-5.197-.65-10.722-.65-3.915 0-5.652-.062-6.901-.247-.918-.136-1.702-.215-1.742-.175-.168.168 1.08 2.238 2.89 4.796 1.091 1.54 3.184 3.782 4.372 4.68 2.439 1.847 5.37 3.615 10.034 6.05 4.073 2.127 6.656 3.794 7.775 5.018.837.914 1.049 1.506.54 1.506-.153 0-.887-.367-1.63-.814"
     style="fill:#c0dcea;fill-opacity:1"
     id="path1" /><path
     d="m 154.12697,118.10392 a 20.418304,20.418304 0 0 1 -3.94224,-6.66225 20.379909,20.379909 0 0 1 -1.15481,-7.65018 c 0.10043,-2.6236 0.7534,-5.224138 1.94234,-7.729568 0.65443,-1.37893 1.44162,-2.66458 2.33912,-3.82439 0.73625,-0.95149 1.56748,-1.84435 2.4699,-2.64973 a 21.651252,21.651252 0 0 1 1.1817,-0.96415 20.099402,20.099402 0 0 1 2.97582,-1.90758 l 0.23967,0.204403 c 13.3718,11.324057 16.19901,23.170655 16.66569,29.371295 a 25.6722,25.6722 0 0 1 0.0525,3.26249 c -0.0187,0.36047 -0.0426,0.6494 -0.0627,0.83748 l 0.134,0.26956 c 0,0 0.0874,-0.36394 0.18327,-1.01933 0.10369,-0.70736 0.21436,-1.76534 0.23986,-3.11579 0.11743,-6.18693 -1.62042,-18.475748 -14.61302,-31.035726 8.42161,-1.705504 16.13011,-0.262267 21.54232,5.687238 1.795,2.0094 3.14157,4.25844 4.00541,6.68688 0.86597,2.427418 1.24313,5.021288 1.12166,7.712198 -0.12309,2.67211 -0.78762,5.30149 -1.97798,7.81392 l -2.30886,4.86061 -1.37426,2.89473 -4.94917,10.4196 -18.32094,-8.69809 c -2.50073,-1.18803 -4.64983,-2.79041 -6.38927,-4.76355 z"
     style="opacity:0.623162;fill:#c0dcea;fill-opacity:1;stroke-width:0.059882;stroke-dasharray:none"
     id="path1-0" /><path
     d="m 145.01448,165.92468 a 11.23665,11.23665 0 0 0 -3.68233,-2.14236 11.215519,11.215519 0 0 0 -4.21465,-0.60438 c -1.44337,0.0659 -2.87181,0.43583 -4.24572,1.1003 -0.75618,0.36575 -1.46049,0.80418 -2.09509,1.30279 -0.52062,0.40903 -1.00858,0.8701 -1.44812,1.36997 a 11.915168,11.915168 0 0 0 -0.52578,0.65423 11.06115,11.06115 0 0 0 -1.03766,1.64535 l 0.11343,0.13116 c 6.28608,7.31256 12.81684,8.82022 16.231,9.05183 a 14.127986,14.127986 0 0 0 1.79558,0.0156 c 0.19832,-0.0112 0.35721,-0.0262 0.46062,-0.038 l 0.14886,0.0726 c 0,0 -0.19993,0.0495 -0.56018,0.10499 -0.38886,0.0599 -0.97062,0.12511 -1.71368,0.14467 -3.40424,0.0898 -10.17393,-0.81662 -17.1386,-7.91548 -0.90432,4.6414 -0.0788,8.87758 3.21731,11.83177 1.11307,0.97964 2.35621,1.71153 3.69612,2.17703 1.33934,0.46671 2.7683,0.66367 4.24864,0.58591 1.46998,-0.0787 2.91425,-0.45501 4.29202,-1.12029 l 2.66544,-1.29032 1.58741,-0.76806 5.71386,-2.76592 -4.8611,-10.04678 c -0.66396,-1.37136 -1.55449,-2.5475 -2.6474,-3.4967 z"
     style="opacity:0.623162;fill:#c0dcea;fill-opacity:1;stroke-width:0.0329544;stroke-dasharray:none"
     id="path2" /><path
     d="m 104.89129,149.75461 a 11.23665,11.23665 0 0 0 2.94323,-3.08004 11.215519,11.215519 0 0 0 1.57215,-3.95688 c 0.27307,-1.41883 0.24703,-2.89417 -0.0781,-4.38528 -0.179,-0.8207 -0.44078,-1.60793 -0.77737,-2.34144 -0.2761,-0.60177 -0.61044,-1.18393 -0.99381,-1.72807 a 11.915168,11.915168 0 0 0 -0.51332,-0.66405 11.06115,11.06115 0 0 0 -1.35745,-1.39329 l -0.15403,0.0797 c -8.578596,4.40408 -11.570036,10.402 -12.592736,13.66762 a 14.127986,14.127986 0 0 0 -0.43459,1.74226 c -0.0354,0.19545 -0.058,0.35345 -0.0706,0.45675 l -0.10537,0.12779 c 0,0 -0.001,-0.20596 0.0288,-0.56921 0.0326,-0.39209 0.10507,-0.97299 0.25962,-1.70007 0.70786,-3.33104 3.17051,-9.70173 11.699826,-14.81554 -4.30176,-1.96347 -8.613586,-2.15029 -12.255966,0.36458 -1.21254,0.85345 -2.21456,1.89124 -2.98017,3.08535 -0.76665,1.19327 -1.29194,2.53669 -1.56212,3.99425 -0.26684,1.44769 -0.2383,2.93991 0.0868,4.43497 l 0.63201,2.8931 0.37602,1.7229 1.35473,6.20188 10.904326,-2.37985 c 1.48852,-0.32526 2.84014,-0.91643 4.01836,-1.75738 z"
     style="opacity:0.623162;fill:#c0dcea;fill-opacity:1;stroke-width:0.0329544;stroke-dasharray:none"
     id="path3" /></svg>
