<svg width="1024" height="1024" viewBox="0 0 270.933 270.933" xml:space="preserve" xmlns="http://www.w3.org/2000/svg">
    <defs>
        <linearGradient id="a">
            <stop style="stop-color:#55769b;stop-opacity:.2" offset="0" />
            <stop style="stop-color:#55769b;stop-opacity:0" offset="1" />
        </linearGradient>
    </defs>
    <g style="opacity:.20">
        <path d="M82.262 59.942a19.144 19.144 0 0 1-2.678 6.746 19.108 19.108 0 0 1-5.01 5.246c-2.003 1.431-4.306 2.439-6.846 2.995-1.398.306-2.803.46-4.178.46-1.128 0-2.267-.104-3.382-.311a20.3 20.3 0 0 1-1.393-.323 18.845 18.845 0 0 1-3.122-1.112l.014-.295c.724-16.413 7.666-25.307 12.216-29.211a24.07 24.07 0 0 1 2.389-1.911c.278-.193.506-.341.657-.434l.123-.254s-.32.144-.861.449c-.584.329-1.432.854-2.448 1.61-4.655 3.463-12.77 11.803-14.628 28.644-6.097-5.266-9.45-11.81-8.144-19.237.46-2.484 1.355-4.773 2.66-6.807 1.303-2.035 3.01-3.803 5.075-5.257 2.052-1.442 4.383-2.458 6.929-3.017l4.929-1.077 2.935-.642 10.566-2.309 4.063 18.576c.554 2.536.599 5.049.134 7.471z" style="fill:#fff;fill-opacity:.66;stroke-width:0;stroke-dasharray:none" transform="rotate(12.56 1027.064 -580.08) scale(4.77701)" />
        <path d="M82.262 59.942a19.144 19.144 0 0 1-2.678 6.746 19.108 19.108 0 0 1-5.01 5.246c-2.003 1.431-4.306 2.439-6.846 2.995-1.398.306-2.803.46-4.178.46-1.128 0-2.267-.104-3.382-.311a20.3 20.3 0 0 1-1.393-.323 18.845 18.845 0 0 1-3.122-1.112l.014-.295c.724-16.413 7.666-25.307 12.216-29.211a24.07 24.07 0 0 1 2.389-1.911c.278-.193.506-.341.657-.434l.123-.254s-.32.144-.861.449c-.584.329-1.432.854-2.448 1.61-4.655 3.463-12.77 11.803-14.628 28.644-7.562-8.196-11.087-17.169-5.483-26.044 1.302-2.035 3.01-3.803 5.074-5.257 2.052-1.442 4.383-2.458 6.929-3.017l4.929-1.077 2.935-.642 10.566-2.309 4.063 18.576c.554 2.536.599 5.049.134 7.471z" style="fill:#fff;fill-opacity:.66;stroke-width:0;stroke-dasharray:none" transform="scale(3.7743) rotate(57.56 63.498 29.127)" />
        <path d="M82.262 59.942a19.144 19.144 0 0 1-2.678 6.746 19.108 19.108 0 0 1-5.01 5.246c-2.003 1.431-4.306 2.439-6.846 2.995-1.398.306-2.803.46-4.178.46-1.128 0-2.267-.104-3.382-.311a20.3 20.3 0 0 1-1.393-.323 18.845 18.845 0 0 1-3.122-1.112l.014-.295c.724-16.413 7.666-25.307 12.216-29.211a24.07 24.07 0 0 1 2.389-1.911c.278-.193.506-.341.657-.434l.123-.254s-.32.144-.861.449c-.584.329-1.432.854-2.448 1.61-4.655 3.463-12.77 11.803-14.628 28.644-7.562-8.196-11.087-17.169-5.483-26.044 1.302-2.035 3.01-3.803 5.074-5.257 2.052-1.442 4.383-2.458 6.929-3.017l4.929-1.077 2.935-.642 10.566-2.309 4.063 18.576c.554 2.536.599 5.049.134 7.471z" style="fill:#fff;fill-opacity:.66;stroke-width:0;stroke-dasharray:none" transform="rotate(102.56 124.676 161.497) scale(2.7716)" />
        <path d="M82.262 59.942a19.144 19.144 0 0 1-2.678 6.746 19.108 19.108 0 0 1-5.01 5.246c-2.003 1.431-4.306 2.439-6.846 2.995-1.398.306-2.803.46-4.178.46-1.128 0-2.267-.104-3.382-.311a20.3 20.3 0 0 1-1.393-.323 18.845 18.845 0 0 1-3.122-1.112l.014-.295c.724-16.413 7.666-25.307 12.216-29.211a24.07 24.07 0 0 1 2.389-1.911c.278-.193.506-.341.657-.434l.123-.254s-.32.144-.861.449c-.584.329-1.432.854-2.448 1.61-4.655 3.463-12.77 11.803-14.628 28.644-7.565-8.195-11.087-17.169-5.483-26.044 1.302-2.035 3.01-3.803 5.074-5.257 2.052-1.442 4.383-2.458 6.929-3.017l4.929-1.077 2.935-.642 10.566-2.309 4.063 18.576c.554 2.536.599 5.049.134 7.471z" style="fill:#fff;fill-opacity:.66;stroke-width:0;stroke-dasharray:none" transform="scale(-1.93004) rotate(-32.44 -278.737 148.759)" />
        <path d="M82.262 59.942a19.144 19.144 0 0 1-2.678 6.746 19.108 19.108 0 0 1-5.01 5.246c-2.003 1.431-4.306 2.439-6.846 2.995-1.398.306-2.803.46-4.178.46-1.128 0-2.267-.104-3.382-.311a20.3 20.3 0 0 1-1.393-.323 18.845 18.845 0 0 1-3.122-1.112l.014-.295c.724-16.413 7.666-25.307 12.216-29.211a24.07 24.07 0 0 1 2.389-1.911c.278-.193.506-.341.657-.434l.123-.254s-.32.144-.861.449c-.584.329-1.432.854-2.448 1.61-4.655 3.463-12.77 11.803-14.628 28.644-7.565-8.195-11.087-17.169-5.483-26.044 1.302-2.035 3.01-3.803 5.074-5.257 2.052-1.442 4.383-2.458 6.929-3.017l4.929-1.077 2.935-.642 10.566-2.309 4.063 18.576c.554 2.536.599 5.049.134 7.471z" style="fill:#fff;fill-opacity:.66;stroke-width:0;stroke-dasharray:none" transform="matrix(-1.2859 -.2865 .2865 -1.2859 118.67 289.56)" />
        <path d="M82.262 59.942a19.144 19.144 0 0 1-2.678 6.746 19.108 19.108 0 0 1-5.01 5.246c-2.003 1.431-4.306 2.439-6.846 2.995-1.398.306-2.803.46-4.178.46-1.128 0-2.267-.104-3.382-.311a20.3 20.3 0 0 1-1.393-.323 18.845 18.845 0 0 1-3.122-1.112l.014-.295c.724-16.413 7.666-25.307 12.216-29.211a24.07 24.07 0 0 1 2.389-1.911c.278-.193.506-.341.657-.434l.123-.254s-.32.144-.861.449c-.584.329-1.432.854-2.448 1.61-4.655 3.463-12.77 11.803-14.628 28.644-7.613-8.47-11.192-17.003-5.483-26.044 1.302-2.035 3.01-3.803 5.074-5.257 2.052-1.442 4.383-2.458 6.929-3.017l4.929-1.077 2.935-.642 10.566-2.309 4.063 18.576c.554 2.536.599 5.049.134 7.471z" style="fill:#fff;fill-opacity:.66;stroke-width:0;stroke-dasharray:none" transform="matrix(-.6007 -.9451 .9451 -.6007 31.828 272.493)" />
    </g>
</svg>