<?xml version="1.0" encoding="UTF-8" standalone="no"?>
<svg
   width="1024"
   height="1024"
   viewBox="0 0 270.933 270.933"
   xml:space="preserve"
   version="1.1"
   id="svg7"
   sodipodi:docname="icon_transparent_blue.svg"
   inkscape:version="1.3 (0e150ed6c4, 2023-07-21)"
   xmlns:inkscape="http://www.inkscape.org/namespaces/inkscape"
   xmlns:sodipodi="http://sodipodi.sourceforge.net/DTD/sodipodi-0.dtd"
   xmlns="http://www.w3.org/2000/svg"
   xmlns:svg="http://www.w3.org/2000/svg"><sodipodi:namedview
     id="namedview7"
     pagecolor="#ffffff"
     bordercolor="#000000"
     borderopacity="0.25"
     inkscape:showpageshadow="2"
     inkscape:pageopacity="0.0"
     inkscape:pagecheckerboard="0"
     inkscape:deskcolor="#d1d1d1"
     inkscape:zoom="0.39697266"
     inkscape:cx="575.6064"
     inkscape:cy="474.84379"
     inkscape:window-width="1920"
     inkscape:window-height="1009"
     inkscape:window-x="1912"
     inkscape:window-y="-8"
     inkscape:window-maximized="1"
     inkscape:current-layer="svg7" /><defs
     id="defs2"><linearGradient
       id="a"><stop
         style="stop-color:#55769b;stop-opacity:.5"
         offset="0"
         id="stop1" /><stop
         style="stop-color:#55769b;stop-opacity:0"
         offset="1"
         id="stop2" /></linearGradient></defs><path
     d="M219.727 127.717a91.451 91.451 0 0 1-19.495 28.673 91.28 91.28 0 0 1-28.81 19.256c-10.825 4.591-22.61 6.899-35.032 6.853-6.836-.026-13.547-.767-19.958-2.196a88.777 88.777 0 0 1-15.446-4.963 96.973 96.973 0 0 1-6.16-2.953 90.023 90.023 0 0 1-13.402-8.428l.372-1.361C102.222 86.82 144.856 52.79 169.1 39.086a114.983 114.983 0 0 1 13.125-6.429 71.742 71.742 0 0 1 3.514-1.34l.837-1.057s-1.641.339-4.48 1.199c-3.065.927-7.565 2.494-13.087 4.964-25.303 11.31-71.804 41.768-97.962 118.362-22.958-30.887-31.794-64.883-17.99-98.156 4.726-11.105 11.277-20.848 19.475-28.976 8.19-8.135 17.985-14.605 29.124-19.24 11.066-4.592 22.99-6.908 35.442-6.87l24.101.1 14.352.055 51.665.21-.353 90.835c-.051 12.4-2.452 24.164-7.136 34.974z"
     style="opacity:0.45223881;fill:#55769b;fill-opacity:1;stroke-width:0.268205;stroke-dasharray:none"
     id="path2" /><path
     d="M179.496 232.091a72.255 72.255 0 0 1-26.91 5.128 72.12 72.12 0 0 1-26.854-5.337c-8.614-3.484-16.487-8.779-23.4-15.744-3.806-3.833-7.14-7.997-9.925-12.377a70.143 70.143 0 0 1-5.856-11.402 76.618 76.618 0 0 1-1.792-5.091 71.127 71.127 0 0 1-2.778-12.196l.968-.553c53.746-30.923 96.577-26.117 117.78-20.228a90.848 90.848 0 0 1 10.923 3.74c1.178.495 2.11.922 2.713 1.215l1.058-.123s-1.107-.728-3.174-1.833c-2.23-1.195-5.62-2.833-10.084-4.539-20.456-7.816-63.45-16.78-120.857 11.398 10.797-40.681 32.242-70.076 71.858-70.194 9.118.027 18.208 1.888 27.018 5.52 8.748 3.616 16.704 8.984 23.639 15.962l13.41 13.52 7.987 8.05 28.747 28.98-50.945 50.552c-6.956 6.899-14.87 12.13-23.526 15.552z"
     style="opacity:0.45223881;fill:#55769b;fill-opacity:1;stroke-width:0.211908;stroke-dasharray:none"
     id="path3" /><path
     d="M97.68 261.338a53.06 53.06 0 0 1-16.636-11.31 52.96 52.96 0 0 1-11.172-16.716c-2.664-6.281-4.003-13.119-3.976-20.325.015-3.967.445-7.86 1.274-11.58a51.509 51.509 0 0 1 2.88-8.962 56.264 56.264 0 0 1 1.713-3.574 52.23 52.23 0 0 1 4.89-7.776l.79.216c43.965 11.851 63.709 36.587 71.66 50.654a66.712 66.712 0 0 1 3.73 7.614c.355.869.618 1.575.778 2.04l.613.485s-.196-.952-.695-2.6c-.538-1.778-1.447-4.388-2.88-7.593-6.563-14.68-24.234-41.66-68.674-56.837 26.73-15.517 53.13-19.645 73.761.865 4.72 4.748 8.474 10.435 11.164 16.895 2.664 6.42 4.008 13.338 3.985 20.563l-.057 13.983-.032 8.327-.122 29.976-52.702-.205c-7.194-.03-14.02-1.422-20.292-4.14z"
     style="opacity:0.45223881;fill:#55769b;fill-opacity:1;stroke-width:0.155611;stroke-dasharray:none"
     id="path4" /><path
     d="M41.907 231.304a36.949 36.949 0 0 1-2.622-13.761 36.88 36.88 0 0 1 2.73-13.732c1.78-4.405 4.489-8.43 8.05-11.966a37.786 37.786 0 0 1 6.33-5.075 35.869 35.869 0 0 1 5.83-2.995 39.18 39.18 0 0 1 2.604-.916 36.372 36.372 0 0 1 6.236-1.42l.283.494c15.813 27.484 13.355 49.386 10.344 60.228a46.456 46.456 0 0 1-1.913 5.586c-.253.602-.471 1.08-.621 1.387l.063.541s.372-.565.937-1.622c.61-1.14 1.449-2.874 2.32-5.157 3.998-10.46 8.582-32.446-5.827-61.802 20.806 5.517 35.834 16.488 35.894 36.746-.014 4.662-.966 9.31-2.822 13.816-1.85 4.473-4.595 8.541-8.163 12.088l-6.914 6.857-4.116 4.084-14.82 14.7-25.85-26.05c-3.527-3.558-6.202-7.605-7.953-12.031z"
     style="opacity:0.45223881;fill:#55769b;fill-opacity:1;stroke-width:0.108362;stroke-dasharray:none"
     id="path5" /><path
     d="M30.061 188.913a25.221 25.221 0 0 1 5.377-7.907 25.174 25.174 0 0 1 7.945-5.311c2.986-1.266 6.236-1.903 9.661-1.89 1.886.007 3.736.211 5.505.605 1.45.324 2.885.784 4.26 1.37a26.744 26.744 0 0 1 1.698.814 24.827 24.827 45 0 1 3.696 2.324l-.102.375c-5.634 20.899-17.391 30.284-24.078 34.063a31.71 31.71 0 0 1-3.62 1.773c-.412.169-.748.294-.968.37l-.231.291s.452-.093 1.235-.33a30.877 30.877 0 0 0 3.61-1.37c6.978-3.119 19.802-11.518 27.016-32.642 7.38 12.705 9.338 25.254-.41 35.061-2.258 2.244-4.96 4.028-8.031 5.306-3.052 1.267-6.34 1.905-9.775 1.895l-6.647-.027-3.958-.016-14.248-.058.097-25.05c.014-3.42.676-6.665 1.968-9.646z"
     style="opacity:0.45223881;fill:#55769b;fill-opacity:1;stroke-width:0.0739673;stroke-dasharray:none"
     id="path6" /><path
     d="M39.064 158.74a21.438 21.438 0 0 1 7.984-1.521 21.398 21.398 0 0 1 7.968 1.583c2.556 1.034 4.892 2.605 6.943 4.671a21.924 21.924 0 0 1 2.944 3.673 20.812 20.812 0 0 1 1.738 3.383 22.733 22.733 45 0 1 .532 1.51 21.103 21.103 0 0 1 .824 3.619l-.287.164c-15.947 9.175-28.655 7.749-34.946 6.002a26.955 26.955 0 0 1-3.24-1.11 16.81 16.81 0 0 1-.806-.36l-.313.036s.328.216.941.544c.662.354 1.667.84 2.992 1.346 6.07 2.32 18.826 4.98 35.859-3.381-3.432 12.283-9.347 20.791-21.32 20.826-2.706-.008-5.403-.56-8.017-1.637-2.596-1.073-4.956-2.666-7.014-4.736l-3.979-4.012-2.37-2.388-8.529-8.599 15.116-14.998c2.064-2.047 4.412-3.6 6.98-4.615z"
     style="opacity:0.45223881;fill:#55769b;fill-opacity:1;stroke-width:0.0628735;stroke-dasharray:none"
     id="path7" /></svg>
