<?xml version="1.0" encoding="UTF-8" standalone="no"?>
<!-- Generator: Adobe Illustrator 16.0.0, SVG Export Plug-In . SVG Version: 6.00 Build 0)  -->

<svg
   version="1.1"
   id="svg2"
   sodipodi:version="0.32"
   inkscape:version="1.4 (86a8ad7, 2024-10-11)"
   sodipodi:docname="vu.svg"
   inkscape:output_extension="org.inkscape.output.svg.inkscape"
   inkscape:export-xdpi="90"
   inkscape:export-filename="D:\Wikipédia\Atelier graphique\Cartes\Nouvelle-Calédonie - Vanuatu\Location map\Vanuatu\Vector for relief map.png"
   inkscape:export-ydpi="90"
   x="0px"
   y="0px"
   width="650px"
   height="1156px"
   viewBox="0 0 625 1156"
   enable-background="new 0 0 625 1156"
   xml:space="preserve"
   xmlns:inkscape="http://www.inkscape.org/namespaces/inkscape"
   xmlns:sodipodi="http://sodipodi.sourceforge.net/DTD/sodipodi-0.dtd"
   xmlns="http://www.w3.org/2000/svg"
   xmlns:svg="http://www.w3.org/2000/svg"><defs
   id="defs8">
	
</defs>
<sodipodi:namedview
   id="base"
   inkscape:cx="252.08357"
   showgrid="false"
   pagecolor="#ffffff"
   inkscape:cy="617.12745"
   bordercolor="#666666"
   inkscape:zoom="2.8284271"
   borderopacity="1.0"
   inkscape:pageopacity="0.0"
   inkscape:pageshadow="2"
   inkscape:window-y="-8"
   inkscape:window-width="1920"
   inkscape:window-height="1009"
   inkscape:window-x="-8"
   inkscape:current-layer="layer10"
   inkscape:document-units="px"
   inkscape:showpageshadow="2"
   inkscape:pagecheckerboard="0"
   inkscape:deskcolor="#d1d1d1"
   inkscape:window-maximized="1">
	</sodipodi:namedview>


<g
   id="layer10"
   inkscape:label="Vanuatu"
   inkscape:groupmode="layer">
	<rect
   style="fill:#d5e5ff;stroke:none;stroke-width:1.86428"
   id="rect127"
   width="651.65491"
   height="1157.3387"
   x="-13.628174"
   y="-0.88457632" /><path
   style="fill:#000000;stroke:#000000;stroke-width:1.03795"
   d="m 529.62059,985.10291 c 0.0944,-0.94142 0.33525,-1.89322 0.64249,-2.78482 0.19928,-0.72553 1.477,-0.63522 1.79357,-0.10483 0.10795,1.24865 -0.0394,2.5274 -0.0228,3.77606 -0.1806,1.00369 -0.36744,2.35614 -1.41992,2.75471 -1.17288,0.20759 -1.77489,-1.02445 -1.7095,-2.03126 -0.004,-0.6508 0.0986,-1.26838 0.71619,-1.60986 z"
   id="path126"
   class="aniwa" /><path
   id="path124"
   style="fill:#000000;stroke:#000000;stroke-width:1.03795"
   d="m 92.26888,275.8449 c -1.1023,0.3664 -1.91135,1.31562 -2.44485,2.31309 -0.67052,0.29686 -1.11661,-0.76136 -1.73938,0.10948 -0.46085,0.35601 -1.58071,0.73535 -1.08457,1.4069 -0.60409,0.45982 -1.23823,-0.26744 -1.6887,0.37505 0.18165,0.7577 -0.96406,0.91146 -0.65682,1.81032 -1.04729,0.99436 0.77152,0.74131 0.46221,1.3319 -0.19617,0.76393 -0.59802,1.64164 -0.29598,2.3516 -0.64353,0.8698 -2.2494,1.34203 -1.98264,2.63947 -0.9518,0.69024 -0.7405,1.86782 -0.88996,2.87463 -0.27195,0.84697 -0.41723,1.81155 -0.17435,2.66786 0.66533,0.66948 -1.28013,0.96103 -0.37504,1.64815 0.0467,0.63626 0.15544,1.37382 0.0973,2.13671 -0.24495,1.18638 -0.4144,2.40389 -0.42166,3.63282 -0.25119,1.86208 -0.0447,3.85965 -0.81901,5.59925 -0.44424,0.79714 -0.60996,1.85034 0.15813,2.52189 1.05559,0.76186 1.12917,2.0896 1.12917,3.27805 -0.10379,1.12929 0.78819,1.99431 1.02173,3.01046 -0.0156,0.80545 0.34844,1.46419 0.8778,2.04752 0.20344,1.15939 0.89842,2.1794 0.7967,3.3855 0.2761,0.75355 0.99707,1.42112 1.14134,2.24214 0.37366,0.65598 0.67628,1.39874 0.71157,2.17927 0.301,0.68297 1.16099,0.93484 1.49002,1.65829 0.23042,0.63419 1.29512,1.0353 1.17783,1.62382 0.0768,0.85631 1.04906,1.52436 1.00754,2.48135 0.51586,0.63004 0.60955,1.43693 0.72372,2.232 0.34979,0.77742 1.51586,0.58598 0.0243,0.88387 -0.34252,1.20921 0.18422,2.38396 0.15205,3.59836 0.15154,0.7027 -0.15722,1.78529 0.27976,2.24821 1.55588,0.31139 -0.30694,0.14289 -0.4014,0.75009 0.35706,0.51171 0.58799,1.17643 0.80076,1.79816 0.50964,1.15835 0.97443,2.40299 0.87375,3.71392 0.25014,0.61135 0.55373,1.24914 0.9305,1.79614 0.465,0.65909 -0.0881,1.59403 0.51492,2.1732 0.11418,0.73902 0.37783,1.61691 0.0426,2.30092 -0.0208,0.7577 -0.27228,1.61039 0.0142,2.31309 0.0177,1.27356 0.89338,2.29484 1.3096,3.46253 0.45047,0.80545 0.54272,1.72416 0.95686,2.54621 0.0145,0.89264 0.29342,1.69267 0.57574,2.51784 0.49925,0.67259 0.72779,1.44095 1.15958,2.15091 0.48472,0.54389 0.59538,1.22484 0.88185,1.85695 0.73176,1.641 0.59642,3.44634 0.36288,5.17556 -0.44632,0.80752 0.54512,1.39547 -0.13785,2.01305 -0.14739,0.74421 -0.17717,1.62102 -0.83523,2.1732 -0.83762,0.64768 -0.61994,1.71259 -0.63655,2.63948 0.0571,1.7915 0.23628,3.60096 0.0588,5.39246 -0.58229,0.53455 -0.72503,1.31364 -1.1454,1.9198 0.0394,1.35453 -0.81535,2.43025 -1.49002,3.52944 -0.3965,0.57294 -0.78414,1.19202 -0.88793,1.84074 0.0343,0.7359 0.37588,1.40705 0.90212,1.9198 0.75044,0.47745 1.06224,1.31375 1.62585,1.95831 0.91651,0.61343 0.69139,1.75071 0.81698,2.69421 0.49095,1.45313 1.77872,2.50754 2.78138,3.6389 1.15212,0.96529 1.89529,2.25104 2.59487,3.55782 0.76186,0.68712 0.80955,1.76403 1.29946,2.61514 0.0249,0.73383 0.20803,1.37714 0.50073,2.04143 0.73487,1.14175 0.74426,2.58143 1.81439,3.50106 0.88641,1.1843 2.24876,1.75901 3.43618,2.56446 0.53558,0.64249 1.00287,1.31873 1.72113,1.79411 0.43593,0.55738 1.56104,0.31554 1.47178,1.29744 -0.16089,0.99954 0.85398,0.79823 1.30757,1.29541 0.85942,0.20032 0.99083,1.28314 1.66031,1.80627 0.8314,0.59993 -0.38518,1.32971 0.1338,1.9421 -0.0477,1.3649 0.42139,2.78429 -0.17232,4.08692 -0.0986,0.96841 -1.15124,0.48898 -1.59341,1.16364 0.0477,0.73799 1.11177,0.99622 0.85955,1.91169 -0.10068,0.82413 0.55063,1.62107 1.36231,1.6522 0.7577,0.14843 1.47614,0.13439 1.89547,0.88794 0.65598,0.16399 1.11344,0.82494 1.87115,0.83117 1.00162,0.50444 2.14148,0.3147 3.23548,0.29395 0.89679,0.10068 1.72306,-0.23099 2.24618,-0.97105 0.50549,-0.36328 1.22294,-0.90613 0.46627,-1.55692 -0.2626,-1.01096 -0.10201,-2.2466 0.66088,-3.051 0.41933,-0.80754 1.84833,-0.47294 1.91372,-1.48598 0.17541,-0.3965 -0.37264,-2.10969 0.21692,-1.53259 0.26986,0.61965 -0.37874,1.81069 0.42774,1.96846 0.74317,-0.0654 1.59666,-0.43551 2.06374,0.37098 0.45358,0.63315 1.4476,0.7639 2.09009,0.43383 0.8179,-0.18475 1.47375,-0.92738 1.21634,-1.79614 0.13909,-0.93415 -1.44899,-1.11123 -1.08051,-2.00698 0.2439,-0.4515 1.60325,-1.46447 0.83725,-1.64611 -0.65599,0.0363 -2.25675,-0.39401 -0.76833,-0.45006 0.89056,-0.22315 1.13187,0.90638 1.96846,0.11962 0.98709,-0.84282 2.29543,-0.89663 3.48077,-1.26095 1.00058,0.1505 1.99889,-0.24457 2.99221,-0.40545 1.59325,-0.25949 3.47865,-0.22956 4.78024,0.82915 0.59786,-0.56672 1.77196,-1.08711 2.41445,-0.33044 0.71203,0.083 1.54416,0.0967 2.30498,0.2088 0.57917,-0.38923 1.01299,-1.10587 1.81843,-0.80279 0.85112,-0.30101 0.56808,1.84421 1.24067,0.83117 0.45047,0.57087 0.46034,1.43605 1.23257,1.74951 1.15108,0.0125 0.52816,1.04583 1.65018,0.96902 1.0255,-0.0986 2.27202,0.27015 3.11587,-0.44396 1.00474,-0.15673 0.0928,0.97259 1.45354,0.47437 0.74213,-0.0768 1.3162,-0.6861 1.89953,-1.08052 0.61446,-0.42867 0.61068,-1.15324 0.84941,-1.76978 0.65599,-0.73798 1.83793,-1.17931 2.26037,-2.19753 0.55635,-0.47227 0.74052,-1.43765 1.45151,-1.64005 0.40999,-0.48264 0.41583,-0.29155 0.92442,-0.73994 -0.29166,-1.07116 0.77823,-1.72329 0.91835,-2.71245 0.74109,-0.50444 0.0866,-1.60885 0.80481,-2.0313 0.55634,-0.47642 1.22192,-0.61469 1.80628,-0.98524 -0.12974,-0.96322 0.78182,-0.27125 1.41704,-0.63453 1.54136,-0.0623 3.08649,-0.074 4.59982,0.27368 1.02238,0.2107 2.03357,0.4848 3.06114,0.73183 0.60927,0.43698 1.3436,0.57709 2.09819,0.47641 0.76082,0.0934 1.53304,-0.0432 1.90359,-0.79671 0.23458,-1.00577 0.13915,-2.14434 0.17028,-3.20304 0.082,-0.52313 0.0214,-2.20971 -0.71764,-1.34407 -0.18683,0.69024 -0.087,1.82144 -1.00348,2.03941 -0.99955,-0.7795 -1.64994,-1.90616 -2.30903,-2.96383 -0.34979,-0.88745 0.30775,-1.42811 0.4541,-2.16713 0.1505,-0.78676 -0.70854,-1.40556 -1.4434,-1.11701 -0.66637,0.64042 -1.40524,0.005 -1.04404,-0.84131 0.45255,-0.92688 -0.30622,-1.20342 -0.60411,-1.97047 -0.39857,-0.61135 -0.59898,-1.16469 -0.99133,-1.85493 -0.61135,-1.28913 -0.14613,-2.8109 -0.61424,-4.10314 -0.14532,-0.83659 -1.31912,-1.03863 -1.25892,-1.91777 -0.80545,0.11314 -0.83069,-1.00652 -0.85145,-1.56909 0.0145,-0.77223 -0.22799,-1.55388 0.0284,-2.37594 0.081,-0.76081 0.82936,-1.19446 -0.13178,-1.78194 -0.69646,-0.56153 -1.1876,-1.3234 -1.02983,-2.24822 0.0654,-0.66636 -0.67645,-1.73343 0.50681,-1.46772 0.67155,0.16088 0.64347,1.23393 1.29946,1.56503 0.52312,0.63938 1.22892,0.85694 2.03333,0.75211 -0.003,-1.41369 0.2246,-2.84199 -0.10339,-4.23491 -0.0322,-0.78366 -0.48235,-1.37733 -1.00755,-1.86101 -0.11936,-1.17704 -0.62119,-2.22544 -1.44947,-3.06722 -1.36491,-0.74732 -2.30788,-2.26315 -3.95718,-2.40431 -1.03069,-0.004 -1.69629,-0.81784 -2.15091,-1.64613 -0.78988,-0.52208 -0.2821,-1.47556 0.59601,-1.27108 0.88641,-0.49406 1.42906,1.01747 1.95426,-0.0547 0.34772,-0.63938 1.00487,-1.53682 0.47032,-2.22186 -0.64768,-0.44528 -0.13271,-1.25547 -0.26557,-1.92183 0.55427,-0.79922 0.66812,-1.75066 0.57574,-2.69623 -0.34771,-0.78262 -0.94148,-1.51115 -1.33798,-2.29687 -0.63107,-0.67882 0.14942,-1.51657 0.39126,-2.02724 -0.46915,-0.37574 -1.20676,-0.8121 -1.09674,-1.62586 0.0882,-0.8179 -0.80544,-1.29534 -0.86564,-2.03332 0.083,-0.81479 0.55931,-1.55533 0.78455,-2.31511 0.0976,-0.97567 -0.38336,-2.02363 -1.45556,-2.13469 -0.88745,0.0228 -1.03717,-0.96684 -1.97859,-0.67101 -0.31761,1.06286 -1.39714,1.64206 -1.9867,2.55027 -0.52105,0.33007 -1.06911,1.4106 -1.72924,0.8636 -0.91028,-0.82205 -0.67303,-2.28913 -1.0197,-3.39766 -0.58644,-1.08154 -0.91231,-2.29716 -1.81844,-3.19291 -0.59786,-0.87395 -1.64232,-1.60572 -1.54476,-2.76719 0.0509,-0.82621 0.0926,-1.32806 -0.3122,-2.05359 0.20551,-0.83244 1.08949,-1.25133 1.52855,-1.9644 -0.86046,0.46915 -1.21438,0.0178 -1.25486,-0.86969 0.27609,-0.85112 -0.6377,-1.24694 -0.37302,-2.10429 0.53973,-1.04002 -0.65631,-0.99068 -1.37042,-1.01766 0.85631,-0.0114 1.16885,-0.7829 1.59545,-1.37245 0.21485,-0.8314 0.30846,-1.88697 -0.13785,-2.68204 -0.4484,-0.58229 0.15083,-1.84877 -0.66292,-2.02523 -0.4785,-0.59163 -1.25084,-0.58679 -1.85493,-0.93658 -0.30308,-0.74525 0.95854,-1.13534 0.32436,-1.99684 -0.1339,-0.69231 -1.10761,-1.22337 -0.68724,-1.91776 0.45774,-0.75355 1.38473,-0.83234 1.94211,-1.43124 0.48368,-0.44113 1.35022,-0.66224 1.95223,-0.73386 0.64457,0.48991 1.85315,-0.20122 1.45354,-1.04403 -0.711,-0.92066 -2.03228,-0.34139 -3.02871,-0.52304 -1.66798,0.46501 -3.67895,0.33222 -4.99715,-0.86766 -0.68401,-0.2543 -1.10996,-1.07734 -1.92994,-0.91023 -0.64768,0.30308 -1.77651,-0.0425 -1.66234,0.99133 -0.49821,0.5771 -1.49885,0.54703 -2.20362,0.8636 -1.65864,0.29893 -2.28227,2.0548 -2.51581,3.51727 0.74006,0.37574 -0.0768,1.45782 0.7359,1.79411 -0.38404,1.02238 0.76575,1.78525 0.5291,2.81179 -0.31242,0.91754 0.0919,1.9962 -0.36692,2.93139 -0.62692,0.80649 -0.89356,1.79075 -1.25892,2.71245 -0.2024,0.70062 -0.66264,1.63687 -0.0689,2.24822 0.69854,0.87914 0.62172,1.97371 0.60615,3.04695 -0.10172,0.93727 0.0586,1.81823 0.36895,2.69218 0.57918,0.8999 -0.42129,1.60504 -0.99943,2.14684 -0.26883,0.83556 -0.31606,1.83082 -0.71359,2.64353 -0.0384,0.84074 -0.84208,1.20936 -1.45758,1.55085 -0.78054,0.30619 -0.93586,0.9946 -1.35623,1.54679 -0.74628,0.36951 -0.97155,0.98185 -1.25284,1.68869 -0.28128,0.60824 -0.55104,1.48592 -0.22097,2.13671 -0.73591,0.14116 -1.48757,0.21607 -2.19753,0.46829 -0.91962,0.55738 -2.00779,1.17259 -3.1402,0.79063 -0.91131,-0.27091 -0.36502,1.58495 -1.44137,1.16769 -0.465,0.33733 -0.62473,1.70895 -0.86969,0.62845 0.0789,-0.83763 1.25519,-0.50068 1.45759,-1.41096 0.11936,-0.91132 -1.194,-0.63667 -1.71505,-0.41558 -1.25073,0.11417 -2.52163,0.30853 -3.78689,0.29192 -0.55738,0.2107 -1.68571,-0.93406 -1.64004,-0.004 -0.2709,0.4868 -0.29781,1.21956 -0.69534,1.86101 -0.99021,0.37366 0.57504,-0.80893 0.30205,-1.23864 0.37574,-1.01823 -0.53984,-1.09879 -1.33595,-1.0116 -0.75563,-0.13493 -1.71226,-0.74723 -2.43675,-0.26354 -0.67778,0.52416 0.17021,1.26103 0.21692,1.86304 -0.40791,1.27253 0.11725,-1.08171 -0.86361,-0.68521 -0.13908,-0.78365 -0.16062,-1.57993 -0.22705,-2.37188 -0.028,-0.6809 -0.8717,-1.04358 -0.82914,-1.79816 -0.17334,-0.5605 0.0673,-2.05802 -0.68724,-1.82654 0.054,0.88329 -0.24048,1.63896 -1.22445,1.03591 -0.52417,-0.27194 1.74103,0.0634 0.89198,-0.69332 0.16251,-0.10609 0.26096,-0.22187 0.33247,-0.34259 0.29301,-0.49464 -0.0493,-1.09658 -0.0851,-1.6806 0.0571,-0.76082 0.57962,-1.40144 0.37099,-2.2401 -0.17022,-0.78158 0.0454,-1.94137 -0.98524,-2.10225 -0.0166,0.73798 -1.84226,1.11296 -0.65277,0.3345 0.96217,-0.20344 0.88986,-1.08321 0.76427,-1.87724 0.41933,-0.76289 -0.027,-1.62492 -0.0851,-2.44282 0.36432,-0.76704 0.35798,-1.67355 0.35071,-2.53608 0.37297,-0.9493 -0.39645,-1.28452 -0.92037,-0.72576 -0.0724,0.0772 -0.1393,0.16961 -0.19867,0.28178 -0.74006,1.10334 -0.71888,-0.10636 0.19867,-0.28178 0.0623,-0.1204 0.12334,-0.23856 0.18043,-0.35273 0.63626,-0.89473 -0.71152,-1.40851 -0.97308,-2.0759 0.11417,-0.89057 -1.17413,-0.99952 -1.20216,-1.86101 -0.89886,-0.8698 -0.21975,-2.07462 -0.1419,-3.12399 -0.0239,-0.848 0.33968,-1.61876 0.20475,-2.48338 -0.48784,-1.01407 -0.72653,-2.12523 -0.82306,-3.26386 -0.2761,-1.15212 -0.88317,-2.32847 -0.43789,-3.53145 0.2242,-0.67675 0.65097,-1.48727 -0.18042,-1.90764 0.0872,-0.79299 -0.47047,-1.63447 -0.075,-2.30498 -0.79819,-0.8615 -0.78051,-2.08957 -0.82306,-3.19291 -0.49199,-0.9082 -0.93289,-1.8285 -1.22041,-2.82597 -0.48472,-0.6155 -0.39881,-1.46434 -0.89806,-2.04144 0.40791,-1.28394 -1.40782,-2.15397 -0.80685,-3.45037 0.30516,-0.62692 1.31445,-1.37303 0.41559,-1.99684 -0.48888,-0.48576 -0.42707,-1.65302 -1.36434,-1.09876 -0.44632,0.62692 -1.43243,0.17687 -1.85695,-0.19057 -0.0913,-0.73798 -0.67598,-1.2772 -1.37245,-1.40487 -1.4552,0.18579 -2.21688,-1.26656 -2.77529,-2.36782 -0.23873,-1.03172 -1.02511,-1.76829 -1.83263,-2.39418 -0.37263,-0.56983 -0.25873,-1.50102 -0.72373,-2.06981 -0.16711,-0.62069 -0.14161,-1.25251 -0.93253,-1.69883 -0.86461,-0.43075 0.0782,-1.3197 -0.14596,-2.01305 -0.64353,-0.45878 -0.57488,-1.29336 -1.04403,-1.85697 -0.66429,-0.0934 -1.53007,-0.32049 -1.8975,-0.70142 -0.53455,-1.19572 -1.00422,-2.47736 -0.84334,-3.81527 0.29063,-0.82102 -0.47121,-1.39662 -1.12512,-1.49003 0.66429,-0.75667 0.20256,-1.46112 -0.61222,-1.786 -0.17438,-0.50237 0.20754,-1.71357 -0.77644,-1.73329 -0.4266,-0.37366 -1.69067,-0.65601 -1.17377,-1.21027 0.13597,-0.9902 -0.0318,-1.35138 -0.92443,-1.73127 0.43906,-0.58229 0.52598,-1.45442 -0.42166,-1.58936 z m -8.06843,8.69486 c -0.38546,0.0263 0.3928,0.64998 0.19867,0.0223 -0.0864,-0.0182 -0.15133,-0.0255 -0.19867,-0.0223 z m -4.07273,24.87225 c -0.14589,-0.0108 -0.59903,0.84798 0.008,0.32031 0.0521,-0.23063 0.0366,-0.31698 -0.008,-0.32031 z m 84.45904,13.69809 c -0.51742,0.0166 -1.0013,0.22608 -0.91631,0.77035 0.30515,0.69854 1.29271,0.91402 1.49407,1.74749 0.51586,0.58851 0.87076,1.55102 1.73329,1.6299 1.03173,0.0851 1.82915,0.81547 2.54015,1.52854 0.63418,0.25741 1.4104,0.18042 2.0394,0.39735 0.58333,-0.13909 1.02567,-1.00369 0.98727,-1.6441 0.0166,-0.77431 0.4675,-1.38097 -0.57979,-1.57922 -0.49095,-0.10276 -0.92323,0.94414 -1.79614,0.2757 -0.30723,-0.25638 -0.4916,-0.71124 -0.92443,-0.76832 -0.92689,-1.14486 -2.31446,-1.8485 -3.72607,-2.2097 -0.21757,-0.0981 -0.54099,-0.15797 -0.85144,-0.14799 z m -74.93099,12.9176 c -0.16681,9.8e-4 -0.43963,0.9603 0.0973,0.44802 0.006,-0.33262 -0.0394,-0.44836 -0.0973,-0.44802 z m 71.90635,0.12771 c -0.0747,0.1121 -0.14931,0.2224 -0.22301,0.3345 -0.22108,0.6892 -0.98981,1.10631 -0.66493,1.82249 0.41207,0.34668 1.44636,0.17217 2.09819,0.30814 0.95699,0.005 0.43992,-1.32739 0.56966,-1.95224 -0.16607,-0.89782 -1.26198,0.0185 -1.77991,-0.51289 z m -1.39475,3.60039 c -0.14651,0.03 -0.18667,0.53381 0.21691,0.30611 -0.0746,-0.24682 -0.15506,-0.31879 -0.21691,-0.30611 z m 6.71423,7.66907 c -0.65346,0.003 -1.33297,0.0589 -1.68464,0.68722 -0.66948,0.60824 0.26883,1.50733 0.90821,0.98525 0.68608,-0.12767 1.54597,0.0114 2.14279,-0.30003 0.75355,-0.77431 -0.32661,-1.12333 -0.9224,-1.37244 -0.14362,0.002 -0.29316,-8e-4 -0.44396,0 z m -74.05725,0.97308 c -0.14797,0.0372 0.0507,1.60963 0.23719,0.60816 l -0.006,-0.0588 -0.0162,-0.12974 c -0.10376,-0.32015 -0.17346,-0.43006 -0.21489,-0.41963 z m 29.44572,8.32182 c -0.15676,0.0296 -0.49875,1.08584 0.0547,0.41559 0.0288,-0.31969 -0.002,-0.42546 -0.0547,-0.41559 z m -26.6015,4.28154 c -0.18158,0.0303 -0.52266,1.13506 0.0851,0.47641 0.0219,-0.36768 -0.0221,-0.48693 -0.0851,-0.47641 z m 79.37268,11.23297 c -0.39468,0.002 -0.75211,0.18812 -0.86157,0.62844 -0.22627,0.48576 -1.18502,1.6406 -0.0568,1.53057 0.81687,-0.12351 1.50025,0.24826 2.27456,0.25137 l 0.0122,-0.0142 c 0.8698,-0.52831 0.56611,-1.34048 -0.19055,-1.79613 -0.23656,-0.36834 -0.73053,-0.60258 -1.17784,-0.60006 z m 4.48021,3.93893 c -0.46635,0.002 -0.98613,0.70061 -1.05619,1.16769 -0.18891,0.51898 1.10518,0.70756 1.60963,0.83523 0.67051,-0.42037 0.19602,-1.22045 -0.12366,-1.73735 -0.12482,-0.18839 -0.27432,-0.26626 -0.42978,-0.26557 z m -2.86652,12.66217 c -0.23116,0.0393 -0.13723,0.84431 0.28584,0.21894 -0.12369,-0.17473 -0.21812,-0.23045 -0.28584,-0.21894 z m 0.0162,1.55084 c -0.1954,0.0277 -0.61232,1.02733 0.0365,0.77846 l -0.004,-0.12569 c 0.0937,-0.50196 0.0501,-0.66447 -0.0324,-0.65277 z m 4.42344,0.49059 c -0.41244,0.001 -0.76319,0.13765 -0.77035,0.6102 -0.054,0.66222 0.36643,1.32048 0.60412,1.98062 0.46811,0.6975 1.19653,0.89846 1.99886,0.75211 0.39753,-0.44009 1.2795,-0.81133 0.92037,-1.52855 -0.0177,-0.98501 -0.96264,-1.30794 -1.711,-1.63801 -0.2671,-0.0735 -0.67808,-0.17747 -1.042,-0.17637 z m 3.15034,5.51005 c -0.61622,0.0437 -1.10978,0.8574 -1.16972,1.44137 0.72968,0.37677 0.91923,1.08684 0.92442,1.85493 0.0291,1.12617 1.41342,1.5113 1.48192,2.59284 0.002,0.5304 0.13753,2.20824 0.84333,1.23257 0.41622,-0.31969 0.16205,-0.75332 0.47032,-1.09066 0.1422,-1.12098 0.40816,-2.41641 -0.26962,-3.41388 -0.6373,-0.87915 -1.11424,-1.94224 -2.01102,-2.58474 -0.0921,-0.028 -0.1816,-0.0387 -0.26963,-0.0324 z m 1.68058,10.09365 -0.0649,0.077 -0.0811,0.10339 c -0.60824,1.04626 0.41271,0.96028 0.14596,-0.18042 z m 4.25925,9.29694 c -0.49844,0.0192 -0.81334,0.93902 -0.61224,1.47988 -0.12559,0.66429 -0.26362,1.40853 -0.60614,2.0313 -0.43282,1.012 -1.65899,0.88709 -2.36376,1.52855 -0.69958,0.48264 -1.03814,1.62041 -0.20882,2.15495 0.48992,0.66533 1.10127,1.08685 1.94616,0.81698 1.09919,-0.22731 1.82727,-0.9986 2.53203,-1.81235 0.88226,-0.77846 1.30767,-1.95851 1.04403,-3.1179 -0.13181,-1.08362 -0.57452,-2.02806 -1.27514,-2.85842 -0.16097,-0.16415 -0.31656,-0.22837 -0.45612,-0.22299 z m -5.72697,7.35078 c -0.0985,0.007 -0.21061,0.0589 -0.33247,0.17232 -0.82932,0.47019 0.0838,1.71933 0.7886,0.88794 0.12158,-0.41356 -0.0697,-1.08665 -0.45613,-1.06026 z m -32.06694,0.23111 c -0.73029,0.0328 0.3751,0.93176 0.25746,0.0162 -0.10365,-0.0144 -0.1888,-0.0193 -0.25746,-0.0162 z m -5.87496,0.12366 c -0.42867,0.87084 0.97879,1.13431 1.42718,0.61223 0.28232,-0.76082 -1.13655,-0.0164 -1.42718,-0.61223 z m -0.99943,2.15699 c -0.71307,0.40998 0.93415,0.50029 0,0 z m 6.67167,1.04606 c -0.0502,1.4e-4 -0.0972,0.0109 -0.13786,0.0345 -0.83867,0.36536 0.51651,1.24511 1.05417,1.22851 0.41481,-0.26244 -0.43114,-1.26429 -0.91631,-1.26297 z m -10.97348,2.21987 c -0.41435,-0.008 -0.85296,0.23366 -1.0643,0.64061 -0.2242,0.82621 -0.0637,1.54577 0.83725,1.71911 0.74109,0.22419 1.54875,0.46942 1.89749,-0.44398 -0.28024,-0.47019 -0.53971,-0.96073 -0.86562,-1.40082 -0.17528,-0.35057 -0.48255,-0.50839 -0.80482,-0.51492 z m 34.46315,0.32638 c -0.75129,0.009 -0.32326,0.62709 0.55952,0.34463 -0.054,-0.10171 -0.10717,-0.20335 -0.16218,-0.30611 -0.15751,-0.028 -0.29001,-0.0398 -0.39734,-0.0385 z m 11.03023,11.71342 c -0.61972,0.0371 -0.81804,1.44161 -0.0162,0.49871 0.1121,-0.19306 0.46358,-0.2831 0.14597,-0.48654 -0.0449,-0.0108 -0.0884,-0.0147 -0.12974,-0.0122 z m -0.0162,1.03592 c -0.17334,0.009 -0.44419,0.34023 -0.66696,0.82712 -0.35498,0.5335 -0.41487,1.75819 0.54938,1.43124 0.3965,-0.39442 0.23072,-0.91988 0.24733,-1.41705 0.0988,-0.60672 0.0232,-0.84905 -0.12975,-0.84131 z m -1.16769,0.35072 c -0.14975,0.0232 -0.1564,0.4822 0.22705,0.24124 -0.0873,-0.19238 -0.16845,-0.2503 -0.22705,-0.24124 z"
   class="espiritusanto"
   sodipodi:nodetypes="cccccccccccccccccccccccccccccccccccccccccccccccccccccccccccccccccccccccccccccccccccccccccccccccccccccccccccccccccccccccccccccccccccccccccccccccccccccccccccccccccccccccccccccccccccccccccccccccccccccccscccccccsccccccccccccccccccccccccccccccccccccccccsccccccccccsscsccccccscsccccccscccsscccscsscccccssscccsscssccsscccccccscccccccsscccscsccccccccsccccccccccccsccssccccccsccsssccsscccccscs" /><path
   d="m 178.02897,414.42054 c -0.53748,-0.002 -1.04158,0.14546 -1.4353,0.60411 -0.93623,-0.0592 -1.40885,0.85375 -2.10427,1.31771 -0.97464,0.23873 -1.91987,0.88276 -2.34958,1.83871 -0.13805,1.00473 -0.91096,1.68349 -1.65829,2.29484 -1.07635,1.17288 -2.55747,2.11628 -3.15844,3.63688 -0.33007,0.94661 0.24547,1.33573 0.97307,1.69071 0.75563,0.23873 1.61513,0.40725 2.41851,0.58993 0.64872,0.60928 1.61581,0.14034 2.39012,0.4237 1.47285,0.18683 3.08101,-0.4468 4.48224,0.27976 0.68401,0.0862 1.52701,-0.004 2.19752,-0.25544 1.1158,-0.16088 1.9405,-0.98626 2.39824,-1.98061 0.43801,-0.62796 0.67327,-1.30965 0.49059,-2.08604 0.28855,-0.99643 -0.75109,-0.91099 -1.18391,-1.48394 -1.05456,0.0737 -2.12633,0.33934 -3.17466,0.0892 -0.81894,-0.61758 0.64543,-1.10346 0.95889,-1.4657 -0.21071,-0.54389 -0.35584,-1.39074 -0.43992,-2.03738 -0.45151,-0.4951 -1.5581,-0.61375 -1.68058,-1.37042 0.32384,-0.80441 1.50622,-0.62378 2.24212,-0.73588 0.81272,0.21797 1.8329,-0.46644 0.69738,-0.93456 -0.62822,-0.16056 -1.37269,-0.41281 -2.06373,-0.41558 z m -2.02117,12.46961 c -0.34875,0.25845 -1.69435,-0.0228 -1.10688,0.90821 0.60929,0.0208 1.9611,0.41642 1.3238,-0.61426 -0.0716,-0.0986 -0.14322,-0.19638 -0.21692,-0.29395 z"
   style="fill:#000000;stroke:#000000;stroke-width:1.03795"
   id="path1"
   class="aore" /><path
   style="fill:#000000;stroke:#000000;stroke-width:1.03795"
   d="m 87.64015,63.974125 c -0.84489,0.227311 -0.19202,-0.595782 0,0 z"
   id="path118" /><path
   style="fill:#000000;stroke:#000000;stroke-width:1.03795"
   d="m 243.08545,64.883368 c -0.53662,0.862536 -0.84696,-0.216931 0,0 z"
   id="path117" /><path
   style="fill:#000000;stroke:#000000;stroke-width:1.03795"
   d="m 364.00339,680.42858 c -0.72449,0.86461 -1.02031,-1.1625 0,0 z"
   id="path116" /><path
   id="path115"
   style="fill:#000000;stroke:#000000;stroke-width:1.03795"
   d="m 181.35004,467.83301 c -0.24637,-0.005 -0.49365,0.006 -0.74197,0.0365 -0.39338,0.61654 -0.5473,1.34544 -1.41502,1.32987 -0.53662,0.51482 -1.2175,0.40571 -1.77384,0.82712 -1.09399,-0.0779 -1.38609,1.09589 -2.01508,1.73734 -0.89264,0.71203 -0.60542,1.90752 -0.7663,2.90707 -0.32903,0.65495 0.12375,1.32104 0.077,2.04347 -0.0747,0.8999 0.35489,1.64239 0.52303,2.4935 -0.0841,1.40539 0.61941,2.65554 1.30757,3.82946 -0.71411,0.42868 -0.62909,1.32697 -1.03389,1.62382 -0.95906,-0.20862 -0.75611,0.85331 -0.75819,1.4657 -0.11729,0.58644 -1.25802,0.52712 -1.34001,1.3907 -0.64561,0.53039 -0.72694,1.0688 -0.20069,1.7414 0.30826,0.98812 -0.81207,1.63744 -1.15148,2.48337 -0.89783,-0.0259 -1.05843,0.99677 -1.22242,1.67248 0.0519,0.78573 -0.62864,1.53149 -0.31829,2.27051 0.14117,0.59579 -0.84181,1.04277 -0.34463,1.8752 -0.4484,0.64457 -0.1,1.44275 0.40343,1.94616 -0.23562,1.20609 1.08246,0.58378 1.64815,1.06228 1.1407,0.92066 1.53677,2.38561 1.61773,3.78891 -0.11832,0.90717 0.82034,1.24108 0.93659,2.04549 0.25222,0.64353 0.34843,1.26505 1.09471,1.52246 0.52832,0.4183 0.80955,-1.24686 1.68869,-0.63655 0.7276,0.0695 1.31817,0.68246 1.73127,1.14539 0.72968,0.33733 1.38482,0.6688 2.19754,0.41762 0.65079,0.1889 -0.0888,1.2868 0.71764,1.69679 0.50548,0.77639 1.33532,1.23182 2.27052,1.09066 1.1023,0.25741 1.65305,-0.83689 2.35159,-1.45758 0.71204,-0.29374 1.30291,-0.77581 1.76168,-1.45151 0.75874,-0.61135 1.89527,-1.01304 2.1205,-2.0759 0.0623,-0.60824 0.3387,-1.72008 1.02375,-1.67856 0.78054,0.19513 1.24943,-0.55302 2.04346,-0.22503 0.0488,-0.8179 0.49095,-0.342 1.03795,-0.97307 0.76186,-0.2159 1.40631,-0.76005 1.38866,0.44397 0.56257,1.32753 0.65844,2.86939 1.36839,4.17409 0.86669,1.19572 1.90657,2.28201 2.7307,3.52132 1.01512,0.99436 1.76866,2.36594 3.07128,3.00844 0.67363,0.5937 1.52853,-1.1617 1.61571,-0.20678 -0.21485,0.81063 -0.81594,1.57215 -0.81697,2.47931 -0.61758,1.14797 -0.28509,2.48633 -0.36086,3.74432 0.12663,0.84385 -0.38089,2.06272 0.60412,2.49554 1.02342,0.18995 0.79207,1.48556 0.298,2.10833 0.15051,0.53662 0.59433,1.30941 0.83929,1.96643 0.79922,0.11417 1.45689,0.85809 0.53519,1.43934 -0.57087,0.52624 -1.07149,0.92435 -1.37042,1.61978 0.12975,0.74005 0.42684,1.63243 -0.0101,2.30294 -0.93934,0.82725 0.0767,1.94954 0.0892,2.92937 -0.17645,0.77119 0.47412,1.51871 0.0527,2.19753 0.13597,0.9435 -1.14722,1.3239 -0.89604,2.27051 0.71204,-0.15257 1.64751,-0.34649 1.5022,0.72778 0.43905,0.75771 -0.46416,1.55954 -0.12164,2.05361 0.45462,-0.0197 0.58612,0.99922 1.48394,0.44598 0.77431,-0.20447 1.48876,0.44851 1.54274,1.20621 0.39546,1.32131 -0.31677,2.58515 -0.12164,3.90853 -0.20551,0.73591 -0.19919,1.08207 -0.1338,1.75154 -0.93312,0.46189 -0.59957,0.98139 0.15813,1.40489 0.65287,0.821 1.5245,1.44754 2.08603,2.35159 0.12871,0.78469 1.05401,0.78294 1.27717,1.50016 0.68816,0.41933 1.03598,1.06872 0.94672,1.8752 -0.12767,0.83659 0.45224,1.3573 0.87779,1.96035 0.005,0.76185 -0.11475,1.67282 -0.62438,2.307 -0.34045,1.37113 1.05683,-0.27376 1.15958,0.68116 0,0.60097 0.22838,1.37537 0.86361,1.68261 0.38923,0.45254 -1.26451,0.48102 -1.5022,-0.10542 -0.82205,-0.39546 -0.27203,-1.72923 -1.29337,-1.46974 -0.98917,0.28439 -1.15501,-0.94673 -1.99886,-1.07647 -0.58437,0.71203 -0.3696,1.70906 -0.0831,2.48337 -0.4131,0.84801 -0.31311,1.9122 -0.10137,2.8422 0.19825,0.78157 1.10691,0.80712 1.45151,1.53057 0.70477,0.20863 1.28991,0.73426 1.91372,1.14944 0.47745,0.5605 0.83774,1.18719 1.33595,1.73938 0.52105,0.75978 1.49075,-0.0298 1.15755,1.2427 -0.30619,1.04313 0.61525,0.91589 1.26501,0.97713 0.79611,0.64768 1.59998,-0.35815 2.48743,-0.12772 0.59578,0.29893 1.57714,0.5092 1.57922,1.31568 -0.15051,0.50756 -0.65441,1.6047 0.36693,1.64207 0.86046,-0.026 0.59169,-1.2999 0.6467,-1.92993 0.0851,-0.69543 0.95598,-1.35244 1.64206,-0.86564 1.09089,0.12663 0.10899,1.47399 0.90821,1.9421 0.58955,-0.31138 1.61505,-0.31234 1.94615,-0.69534 0.0955,-0.55842 -0.82372,-1.95564 0.28584,-1.16161 0.75252,-0.0457 0.5712,-1.30755 0.7217,-1.91372 0.465,-0.60823 0.19998,-1.35287 0.53316,-1.88534 0.44736,-0.72241 1.33795,-0.63387 2.0313,-0.35882 0.88641,0.11937 0.93657,0.98575 0.89402,1.69884 0.91547,0.15984 1.73458,-0.28903 2.50162,-0.71563 0.92585,-0.3664 1.27172,-1.35767 1.11498,-2.29078 -0.75977,-0.16711 -1.38703,-0.72789 -1.75965,-1.37245 0.19617,-0.56153 0.0529,-1.79379 0.86564,-1.85087 0.70996,0.0498 0.81992,-0.84649 1.64612,-0.8413 1.25073,-0.15051 -0.1289,-1.20107 0.52708,-1.46368 -0.0415,-0.83451 0.57987,-1.59227 1.44137,-1.59746 0.67259,0.77742 1.5598,1.28136 2.34553,1.92385 0.57502,1.00888 1.21685,-0.3062 2.01711,0.12974 0.61758,0.59371 1.39809,-0.28927 2.16306,-0.0568 0.80234,0.16814 1.43532,-0.57365 2.16915,-0.40342 0.59889,0.42037 1.13704,0.89844 1.92588,0.83928 0.711,0.37159 1.496,0.26008 1.97657,1.05619 0.61758,0.96944 1.88645,-0.20985 2.61716,0.56965 0.55012,0.33941 1.63603,-0.55479 1.85089,0.2818 -0.0374,1.05767 0.92565,1.53749 1.56503,2.19347 0.62276,0.51483 1.18616,1.07334 1.13323,1.9421 0.66844,0.15465 1.1989,1.04757 1.89952,0.46424 0.77742,0.0114 1.34667,-0.80003 2.10022,-0.18245 0.82829,0.15673 0.68767,-1.11988 0.49668,-1.64612 -0.15569,-0.82621 0.0593,-1.55064 0.38518,-2.29484 0.57294,-0.81687 0.7115,-1.89877 1.57922,-2.49351 0.59579,-0.25949 1.44435,-0.414 1.23053,-1.30352 0.24185,-0.73902 -0.50816,-1.42769 0.32842,-1.83872 0.43179,-0.50444 1.04909,-0.99387 1.48191,-0.19258 0.47227,0.75252 1.60597,-0.0276 1.71911,-0.53722 0.21278,-0.88018 -0.16357,-1.56632 -0.57979,-1.81438 0.54285,-0.82725 1.3167,0.3246 1.79208,0.70345 0.67986,0.89056 1.05968,-0.46628 1.64612,-0.76833 0.2761,-0.84177 0.0136,-1.92718 -0.39531,-2.73678 -0.60409,-0.5169 -0.83762,-1.18275 -1.03795,-1.92385 -0.56153,-0.53558 -0.29455,-1.69156 -1.2204,-1.82857 -0.82621,-0.0322 -0.73164,-1.36987 -1.64815,-1.09066 -0.63003,0.98398 -1.36587,2.16932 -2.68407,2.20564 -1.02757,0.0955 -0.1887,1.18425 -0.35477,1.81844 0.19513,0.74317 -0.6463,1.08576 -0.79265,1.72721 -0.46915,0.62484 0.86648,1.02277 0.61426,1.8002 0.31346,0.45462 -0.8802,1.97078 -0.82104,0.96293 0.3228,-0.78157 0.11295,-1.82802 -0.77035,-0.9001 -0.42971,-0.70373 -0.0364,-1.6194 -0.64669,-2.2401 0.42244,-0.67363 0.72691,-1.39983 0.89402,-2.17725 0.21693,-0.69543 0.56104,-1.37588 0.66899,-2.05158 0.6155,-0.37262 1.44563,-0.47902 1.47988,-1.40487 0.49718,-0.99332 -0.89909,-0.72809 -0.98524,-1.53666 -0.4951,-0.96633 1.0052,-1.15446 1.10484,-1.97859 -0.18683,-0.64249 -1.05952,-1.09085 -1.13322,-1.86101 -0.10794,-0.7359 -0.17362,-1.4131 -0.85347,-1.84074 0.0426,-1.17599 0.25123,-2.37829 -0.13177,-3.53145 -0.34045,-0.99955 -1.03789,-2.41101 -2.29484,-2.21173 0.0208,0.85527 -0.95652,1.80946 -1.74952,1.19811 -1.06701,0.0426 -1.32878,-1.22613 -2.11035,-1.71708 -0.69543,-0.23769 -1.48599,-0.34474 -1.91778,-0.9893 -1.30989,-0.17334 -1.04623,-2.02148 -2.16307,-2.48337 -0.64664,0.17853 -1.51953,0.76579 -2.03332,0.48451 -0.30827,-0.73176 -0.70072,-1.58013 -1.42313,-2.01711 -0.98501,0.0519 -1.81215,-0.80692 -1.69071,-1.79816 0.78884,-0.75667 2.15297,-1.21943 2.28064,-2.42864 0.29374,-0.95699 -1.02439,-0.91166 -1.64612,-1.02376 -0.73176,0.0426 -1.78052,-0.21422 -1.92791,0.75211 -0.89056,0.54077 -2.06282,0.19619 -3.05302,0.0426 -1.2144,-0.45358 -2.21331,-1.42353 -3.22738,-2.22794 -1.01615,-0.73694 -0.39345,-2.2015 -1.20824,-3.02668 -0.74421,-0.89679 -1.70245,-1.58061 -2.62934,-2.25631 -0.58852,-0.48058 -1.29191,-0.43994 -2.00291,-0.4825 -0.60512,0.25845 -1.46489,0.51286 -2.06171,-0.004 -0.89367,-0.35498 -0.53852,-1.4089 -0.95889,-2.10225 -0.39442,-1.16147 -1.93689,-0.4206 -2.54824,-1.37448 -0.48161,-0.7795 0.0435,-1.88834 -0.29801,-2.75503 -0.36017,-0.60304 -0.54874,-1.88786 -1.48393,-1.52042 -1.02031,0.19824 0.33812,1.30591 -0.3791,1.76572 -1.16043,0.55219 -2.18271,-0.62977 -2.46918,-1.65423 -0.0633,-0.99954 -1.12461,-0.62698 -1.70897,-0.30003 -0.57607,0.0498 -1.47926,-0.29222 -1.76573,-0.92848 -0.7193,-0.65703 -0.0225,-1.26844 0.54735,-1.72721 0.59267,-0.64976 0.84501,-1.83529 0.42775,-2.58676 -0.44113,-0.70789 -1.57656,0.59083 -1.73329,-0.52911 -0.2761,-0.69232 -0.0141,-1.62451 -0.66697,-2.11442 0.0529,-0.79092 -0.29663,-1.37686 -1.13322,-1.53463 -0.95491,-0.19513 -0.43302,1.10487 -0.51087,1.6664 0.39961,0.58748 0.50313,1.32105 0.44396,2.04346 -0.26571,1.03899 1.01613,1.56904 1.08255,2.47933 -0.14635,0.32488 -1.19552,-0.77136 -1.69477,-0.0365 -1.00266,-0.59059 -1.36733,-1.83601 -2.10428,-2.68609 -0.80025,-0.72242 -1.75639,-1.38676 -2.80368,-1.68465 -0.82413,-0.82517 -2.04863,-1.34323 -2.39011,-2.54621 -0.10484,-0.97775 -1.21095,-0.54584 -1.70086,-1.08661 -0.62796,-0.74006 0.39628,-1.47463 1.00348,-1.82857 1.05456,-0.58437 0.33161,-1.33124 -0.62641,-1.14337 -0.80545,0.15881 -1.31765,-1.02895 -2.05563,-0.50478 -0.8013,0.49302 -1.23591,-0.97239 -0.79063,-1.52043 0.74214,-0.64664 1.28933,-1.42211 1.80831,-2.24416 0.29478,-1.13344 -0.23442,-2.37627 0.0365,-3.52943 0.76289,-0.84385 -0.0175,-1.1555 -0.74197,-0.55141 -0.75044,-0.30205 -1.47161,-0.70376 -2.21375,-0.99335 -0.88744,-0.59475 0.25125,-1.15713 0.17029,-1.82453 -0.246,-0.88018 -1.09925,-1.50158 -1.72721,-2.13265 -0.70892,-0.22005 -0.92371,-1.09804 -1.77587,-0.99943 -0.98501,0.081 -1.56216,-0.8377 -1.5549,-1.72722 -0.70788,-0.45359 -0.94217,-1.21372 -1.43934,-1.84479 -0.38922,-0.87188 -1.29511,-1.6071 -1.17783,-2.62325 -0.11209,-0.92066 1.45571,-0.59015 1.18999,-1.5326 -0.0882,-0.81479 -0.87713,-0.88204 -1.33798,-1.52246 -1.1843,0.16815 -2.14175,-0.64994 -3.31048,-0.59803 -0.66948,-0.62173 -1.36358,-1.27679 -2.21781,-1.59544 -0.52728,-0.69958 -1.68254,0.73937 -1.38258,-0.23111 0.19721,-0.71619 -1.20364,-0.60597 -1.48597,-1.30555 -0.49302,-0.32487 -1.08,-0.50337 -1.66437,-0.56357 -1.75102,-0.0599 -3.43474,-0.86746 -5.15933,-0.90416 z m 12.45336,2.08198 c -0.22887,0.007 -0.43766,0.10546 -0.57574,0.34058 -0.66221,0.68298 0.4149,1.55699 1.09268,0.94875 0.43594,-0.008 1.28775,-0.0731 0.66291,-0.62844 -0.23227,-0.35012 -0.74293,-0.67392 -1.17985,-0.66089 z m 5.8263,6.75681 c -0.26169,0.0106 -0.63314,0.39502 -0.79671,0.62642 -0.8999,0.69957 1.08996,0.64721 1.07647,-0.19665 -0.0216,-0.32265 -0.13296,-0.43572 -0.27976,-0.42977 z m 4.39709,4.74173 c -0.44528,0.78676 0.13731,1.85186 0.80887,0.81495 -0.0529,-0.70789 -0.0833,-0.83156 -0.80887,-0.81495 z m 1.71707,1.64206 c -0.29901,0.018 -0.52595,0.23654 -0.43788,0.70751 -0.18268,0.93623 0.92686,1.0511 1.60153,0.92239 -0.0405,-0.3446 -9.8e-4,-0.70365 -0.21895,-0.9974 -0.17314,-0.41521 -0.60582,-0.65291 -0.9447,-0.6325 z m 8.50632,13.25615 c -0.16988,0.003 -0.331,0.0353 -0.46019,0.10136 -0.96841,0.18787 -0.10613,1.53622 0.61629,0.90618 0.29997,-0.008 0.59914,-0.0179 0.89807,-0.0304 0.26678,-0.61628 -0.44746,-0.98773 -1.05417,-0.97713 z m -0.40139,2.91112 c -0.76808,0.36017 0.48331,0.84636 0.70751,1.14945 0.4214,0.43593 1.84514,0.54646 1.48393,-0.36693 -0.28751,-1.0421 -1.47422,-0.41405 -2.19144,-0.78252 z m -1.35624,1.96238 c -0.51526,0.0105 0.22278,1.09735 0.62034,0.22705 -0.29536,-0.16745 -0.49526,-0.22961 -0.62034,-0.22705 z m -6.99399,42.78498 c -0.28138,0.021 -0.12081,0.70163 0.18854,0.0608 -0.0775,-0.0468 -0.13948,-0.0645 -0.18854,-0.0608 z m 65.13738,16.09835 c -0.61862,0.13182 -1.09348,1.00759 -1.75154,1.30756 -0.56153,0.47642 -1.62394,-0.27142 -1.44543,0.97308 -0.61964,0.88018 0.55535,1.15459 1.12311,0.6325 1.23204,-0.0903 2.22751,-0.86342 3.19695,-1.563 0.056,-0.79611 -0.48371,-1.0481 -1.12309,-1.35014 z m -34.70438,4.4052 c -0.0965,0.002 -0.22571,0.0796 -0.39532,0.26759 -0.98812,0.45981 -0.0865,1.32788 0.44599,1.02376 0.2149,-0.34058 0.29406,-1.29878 -0.0507,-1.29135 z m 27.47929,0.21082 c -0.73694,0.23354 -0.90571,1.52013 0.0689,0.97106 l 0.0608,-0.0203 c 1.14175,-0.15881 0.54077,-0.65705 -0.12974,-0.95079 z m 10.41597,0.13381 c -0.25443,0.0443 -0.49188,1.05698 0.25341,0.81494 v -0.10946 -0.12974 c -0.0447,-0.45096 -0.14996,-0.59375 -0.25341,-0.57574 z m -29.63425,0.15812 c -0.10243,10e-4 -0.20523,0.0147 -0.30611,0.0426 -0.92585,0.28129 0.5049,1.24744 1.06228,0.95889 0.30214,-0.63493 -0.20301,-1.00776 -0.75617,-1.00146 z m 26.47176,0.0284 c -0.41344,0.0149 -0.54656,0.95644 -0.56358,1.39676 0.14843,0.57606 0.9352,-0.1383 1.34,1.00552 0.33526,0.53246 0.969,-1.02195 0.49466,-1.44543 -0.11625,-0.48265 -0.42376,-0.58474 -0.85347,-0.71967 -0.16348,-0.17256 -0.30186,-0.24137 -0.41761,-0.23718 z m 1.41906,0.20474 c -0.26053,0.47227 1.11873,1.50378 1.08863,0.61426 0.16815,-0.72034 -0.7077,-0.27693 -1.08863,-0.61426 z m -18.10936,0.20476 c -0.21859,0.0253 -0.52871,0.85631 0.13785,0.21893 -0.0236,-0.16892 -0.0767,-0.22603 -0.13785,-0.21893 z m 19.02568,1.45961 c -0.26874,0.0112 -0.26882,0.43301 0.45005,0.27976 -0.17565,-0.21539 -0.33658,-0.28451 -0.45005,-0.27976 z m -10.17677,0.26962 c -0.65037,0.022 -0.33765,1.49056 0.34869,0.66899 -0.0301,-0.20448 -0.0611,-0.40873 -0.0912,-0.61425 -0.099,-0.0398 -0.18395,-0.0572 -0.25747,-0.0547 z m 10.75858,0.57372 c -0.34439,-0.005 -0.7175,1.11648 0.25138,0.35071 l -0.008,-0.0466 c -0.062,-0.21959 -0.15121,-0.30277 -0.24328,-0.30407 z m -8.86919,0.96699 c -0.26807,0.003 -0.82065,0.60224 -0.98524,0.92442 -0.85423,0.59578 0.0245,1.61218 0.75414,0.89807 0.12871,-0.42037 0.12256,-0.91953 0.3426,-1.30149 0.0828,-0.38315 0.0194,-0.52266 -0.1115,-0.521 z m -46.9834,6.73045 c -0.66011,0.0176 -1.31126,0.46816 -1.04606,1.16566 0.76081,0.44009 1.26266,1.59092 2.27051,1.265 0.002,-0.14116 0.004,-0.28347 0.008,-0.42774 0.22108,-0.84178 -0.26989,-1.5436 -0.95078,-1.98265 -0.092,-0.0157 -0.18749,-0.0228 -0.28179,-0.0203 z"
   class="malakula" /><path
   style="fill:#000000;stroke:#000000;stroke-width:1.03795"
   d="m 348.20684,613.51824 c -0.58955,1.05352 -1.34414,-0.65079 -0.60201,-0.9985 0.87603,-0.22732 0.53974,0.41102 0.60201,0.9985 z"
   id="path83" /><path
   style="fill:#000000;stroke:#000000;stroke-width:1.03795"
   d="m 265.79059,228.48799 c -0.74421,0.81271 -0.711,-1.56627 -0.23977,-1.10749 0.4349,0.23353 0.68401,0.73383 0.23977,1.10749 z"
   id="path81"
   class="merig" /><path
   style="fill:#000000;stroke:#000000;stroke-width:1.03795"
   d="m 377.8517,612.85811 c -0.8916,0.62069 -1.10023,-1.04522 -0.65183,-1.12722 1.31716,-0.22004 0.47642,0.35602 0.65183,1.12722 z"
   id="path80" /><path
   style="fill:#000000;stroke:#000000;stroke-width:1.03795"
   d="m 320.65137,390.05304 c -0.91962,0.35913 -1.5372,-0.90406 -0.34148,-0.82206 0.5034,-0.13078 0.21797,0.56049 0.34148,0.82206 z"
   id="path79" /><path
   style="fill:#000000;stroke:#000000;stroke-width:1.03795"
   d="m 383.79603,637.62668 c -0.43075,0.93519 -1.23827,-0.70061 -0.52831,-1.09815 0.73279,-0.22108 0.0727,0.8833 0.52831,1.09815 z"
   id="path69" /><path
   style="fill:#000000;stroke:#000000;stroke-width:1.03795"
   d="m 381.50736,643.25755 c -0.78366,0.30931 -1.5725,-0.59578 -0.8013,-1.1407 0.547,-0.53662 1.23723,-0.68816 1.59637,0.12767 -0.0187,0.47019 -0.3965,0.82101 -0.79507,1.01303 z"
   id="path61" /><path
   id="path57"
   style="fill:#000000;stroke:#000000;stroke-width:1.03795"
   d="m 227.51622,120.64406 c -0.72968,0.81168 -0.63834,-0.64976 -1.17807,-1.01408 -0.39027,-0.45877 -0.004,-2.19422 0.43282,-1.15523 -0.0592,0.89159 1.15939,1.2611 0.74525,2.16931 z m -1.50191,-1.15109 c -0.63004,0.86254 -1.25488,-0.219 -0.77846,-0.89056 0.59059,-0.92896 0.28855,0.84282 0.77846,0.89056 z m -0.98501,2.38002 c -0.44425,0.69543 -0.64872,-1.77385 0.15984,-1.14901 0.17749,0.25222 0.004,0.8615 -0.15984,1.14901 z m -2.07071,-4.71333 c -0.99643,1.19572 -0.58956,-1.31923 0,-0.25429 v 0.12974 z m 4.02516,-0.0996 c -0.56257,1.03795 -0.50755,-0.9601 0,0 z"
   class="rowa" /><path
   style="fill:#000000;stroke:#000000;stroke-width:1.03795"
   d="m 359.70835,679.54529 c -0.36951,0.63937 -0.86876,-0.82206 -1.78631,-0.45774 -0.78365,-0.32903 -0.86668,-1.45417 -0.69542,-2.13921 0.56672,-0.58437 1.34622,0.58125 1.5455,1.10956 -0.0291,0.69024 0.64976,0.90613 0.93623,1.48739 z"
   id="path56" /><path
   style="fill:#000000;stroke:#000000;stroke-width:1.03795"
   d="m 360.75461,661.29088 c -0.79922,0.1588 -1.83821,-0.16815 -1.78009,-1.13656 -0.88121,-0.75666 -0.0477,-1.10541 0.78885,-0.87603 0.47538,0.46708 1.48219,0.49095 1.53408,1.25904 0.0976,0.383 -0.27713,0.58332 -0.54284,0.75355 z"
   id="path54" /><path
   style="fill:#000000;stroke:#000000;stroke-width:1.03795"
   d="m 314.4133,575.73379 c -0.76393,0.68816 -0.79818,-0.58437 -0.7193,-1.10542 0.43698,-0.83866 1.96069,-0.59578 1.99909,0.38404 -0.3446,0.37886 -0.80545,0.55738 -1.27979,0.72138 z"
   id="path52" /><path
   style="fill:#000000;stroke:#000000;stroke-width:1.03795"
   d="m 89.46383,57.733977 c -0.87811,0.01972 -1.62958,0.174375 -1.30989,-0.835549 -0.12663,-0.776386 1.06908,-0.735906 1.60363,-0.883295 0.72656,-0.706843 1.36179,0.206552 1.39293,0.951799 -0.18061,0.583328 -1.15836,0.569834 -1.68667,0.767045 z"
   id="path50"
   class="metoma" /><path
   style="fill:#000000;stroke:#000000;stroke-width:1.03795"
   d="m 380.98942,633.45413 c -0.54596,0.79195 -1.25488,-0.38508 -1.51437,-0.90509 0.11937,-0.74525 -1.06805,-1.3265 -0.75043,-1.71885 0.85319,0.0135 1.13032,1.07013 1.78319,1.44898 0.19202,0.37989 0.45151,0.73798 0.48161,1.17496 z"
   id="path47" /><path
   style="fill:#000000;stroke:#000000;stroke-width:1.03795"
   d="m 390.43372,639.57284 c 0.17541,1.01822 -1.20714,-0.0872 -1.64308,0.74732 -0.64249,0.45566 -1.70016,0.15465 -2.26376,0.55945 -0.17542,0.74525 -1.17496,0.98398 -1.56627,0.17438 -0.27194,-0.89575 0.63626,-1.64411 1.10023,-2.35615 0.81894,-1.12513 2.31255,-0.3612 3.41589,-0.21589 0.31969,0.36432 0.63834,0.72864 0.95699,1.09089 z"
   id="path44" /><path
   style="fill:#000000;stroke:#000000;stroke-width:1.03795"
   d="m 301.8728,252.07226 c -1.09815,0.21382 -2.1226,-0.61031 -2.3385,-1.65864 -0.36743,-0.89264 -0.0602,-1.97833 -0.16088,-2.94778 0.50341,-0.61135 1.28602,-1.20713 2.06967,-0.6975 1.00889,0.29063 1.72507,1.11684 2.29906,1.98664 0.43282,1.01615 0.1204,2.14544 -0.71203,2.8502 -0.30516,0.22316 -0.75563,0.43075 -1.15732,0.46708 z"
   id="path43"
   class="merelava" /><path
   style="fill:#000000;stroke:#000000;stroke-width:1.03795"
   d="m 252.28791,157.5255 c -0.9217,0.52624 -1.98975,0.23665 -2.95297,0.0612 -0.766,0.14946 -1.66902,-0.17853 -1.58806,-1.08881 -0.0841,-0.93104 -0.74213,-2.11846 0.24392,-2.79624 0.94869,-0.76289 2.16101,-1.10645 3.37022,-1.16561 0.63315,0.28128 1.38774,0.63315 1.35245,1.46558 0.081,0.93312 0.70788,2.03853 0.17541,2.88446 -0.20136,0.21278 -0.40065,0.4266 -0.60097,0.63938 z"
   id="path40"
   class="mota" /><path
   style="fill:#000000;stroke:#000000;stroke-width:1.03795"
   d="m 104.32933,93.74976 c -0.79818,-0.0841 -1.87038,0.33423 -2.25754,-0.6238 -0.69335,-0.72034 -0.0643,-2.04891 -1.00681,-2.53986 0.0301,-0.806489 -0.88433,-0.885374 -1.10022,-1.556926 0.0664,-0.769121 -0.7629,-1.46247 0.17645,-2.00428 0.73383,-0.471229 1.82575,-0.388193 2.41842,-1.174958 0.70581,-0.699577 1.71365,-0.0301 2.38313,0.371586 0.77535,0.351864 0.93623,1.464546 1.1542,2.240931 0.44113,1.199869 -0.68608,2.063447 -1.1459,3.005897 -0.16399,0.78262 0.14532,1.78112 -0.62173,2.28141 z"
   id="path36"
   class="toga" /><path
   style="fill:#000000;stroke:#000000;stroke-width:1.03795"
   d="m 94.05675,73.993446 c 0.78158,0.180603 1.95031,-0.239766 2.28868,0.757703 0.17956,1.00681 -0.98917,0.583327 -1.53824,0.811676 -0.61239,0.575023 0.20136,1.484267 0.90613,1.512291 1.02134,0.384041 2.06655,0.836587 2.61355,1.848587 0.40896,0.985014 0.4266,2.263767 -0.0332,3.25397 -0.50236,0.481608 -0.79714,1.388776 -1.40538,1.632694 -0.66532,-0.249108 -1.39915,-0.916509 -1.11995,-1.706388 0.52002,-0.735906 -0.25844,-1.278753 0.0322,-1.851701 -0.23665,-0.888485 -1.14589,-1.662794 -2.14544,-1.560037 -0.75874,-0.190983 -1.65345,-0.198249 -2.09665,-0.937268 0.50652,-0.766007 -0.38508,-1.297436 -0.19098,-1.908788 1.14589,-0.421408 -0.15881,-1.420952 0.80025,-1.577683 0.76082,0.148427 1.34934,-1.008886 1.88907,-0.275056 z"
   id="path35"
   class="lo" /><path
   style="fill:#000000;stroke:#000000;stroke-width:1.03795"
   d="m 346.75164,559.67568 c 1.08673,0.96737 1.69704,2.34369 1.88699,3.75841 0.50133,0.61447 0.83659,1.30263 0.67051,2.13403 0.23147,0.89263 -0.56879,1.27979 -1.26629,1.4469 -0.78573,0.40272 -1.76348,0.70995 -2.62082,0.57191 -0.9134,-0.5086 -2.0977,-0.55634 -2.83257,-1.33999 -1.29017,-0.17853 -1.54447,-1.61817 -1.66902,-2.68414 0.11833,-0.88018 -1.17184,-0.75563 -1.01719,-1.66695 0.0581,-0.82932 0.97879,-1.24034 1.74479,-1.22478 0.47642,-0.62795 0.9134,-0.92169 1.74168,-0.80337 0.64976,-0.49406 1.41888,-0.38612 2.21187,-0.31553 0.383,0.0405 0.76601,0.082 1.15005,0.12351 z"
   id="path33"
   class="lopevi" /><path
   style="fill:#000000;stroke:#000000;stroke-width:1.03795"
   d="m 331.08588,551.71565 c 0.8999,0.26675 2.09769,-0.20447 2.64261,0.80234 0.3363,0.6674 -0.0394,1.43755 -0.59786,1.88387 -0.49095,1.84859 -0.82932,3.7854 -0.51586,5.70249 0.0903,0.92793 -0.47123,1.68044 -0.99643,2.35822 -0.19825,0.72034 -0.82828,1.45417 -1.33584,1.82472 -0.67051,-0.49095 -1.29121,0.24392 -2.02088,-0.0457 -1.04418,-0.0664 -1.84755,-1.06909 -1.99909,-2.04165 0.0208,-0.83451 0.33006,-1.62958 0.43905,-2.48485 0.32073,-0.90094 0.60305,-1.8382 0.5169,-2.82841 0.10172,-0.89367 1.12513,-1.39085 1.09296,-2.35718 0.5771,-0.7193 0.34979,-1.83924 1.10957,-2.47862 0.28958,-0.62069 1.12306,-0.20655 1.66487,-0.33526 z"
   id="path31"
   class="paama" /><path
   style="fill:#000000;stroke:#000000;stroke-width:1.03795"
   d="m 380.26493,618.9519 c 0.70788,0.16919 1.89011,-0.082 1.97729,0.96322 0.36744,0.65287 0.63315,1.29017 0.1723,1.93785 0.0581,0.76705 0.007,1.84029 -0.97359,1.92125 -0.73591,0.41102 -0.52624,1.42095 -1.41576,1.59844 -0.80753,0.47019 -0.62381,1.23516 -0.81376,1.56522 -0.51586,0.58333 -1.14278,0.98709 -1.94615,0.98087 -0.50652,0.56153 -1.15835,0.80441 -1.83821,1.01407 -0.88537,0.246 -1.84547,-0.13908 -2.66026,-0.34148 -0.36951,-0.5605 -0.0862,-1.40642 -0.28025,-2.09043 -0.0197,-1.1978 -0.14012,-2.46513 -0.12144,-3.62037 0.58022,-0.79818 0.34772,-1.97314 0.84489,-2.76406 0.72138,-0.44216 1.84548,0.56776 2.48278,-0.31034 0.48472,-0.49718 0.4214,-1.36491 1.24138,-1.63062 0.39442,-0.7411 1.22997,-0.46812 1.8735,-0.21589 0.5688,0.17541 1.00266,0.62692 1.45728,0.99227 z"
   id="path30"
   class="tongoa" /><path
   style="fill:#000000;stroke:#000000;stroke-width:1.03795"
   d="m 347.74495,654.14252 c -0.84489,0.0893 -1.6794,-0.004 -2.2648,-0.69023 -0.61758,-0.30827 -1.68044,-0.17542 -1.33999,-1.15732 0.11313,-0.72448 -0.4048,-1.6794 0.48783,-2.03645 0.75667,-0.53662 1.83406,-0.50133 2.36964,-1.36387 0.73902,-0.71099 1.92436,-0.51689 2.60006,-1.36697 0.93104,-0.99747 0.93935,-2.82011 2.4423,-3.28615 0.67985,-0.32695 1.59325,-0.24184 2.32189,-0.0758 0.77016,0.38715 1.73545,0.26571 2.2866,1.01304 0.62277,0.58229 1.32857,1.05871 2.09562,1.42821 0.36743,0.96115 -0.66014,1.46247 -1.24969,2.02504 -1.34622,0.58748 -2.90003,0.0737 -4.28569,0.36225 -1.01823,0.87084 -1.92228,1.89114 -2.70594,2.96957 -0.90301,0.74109 -1.53927,1.98144 -2.75783,2.17865 z"
   id="path29"
   class="emae" /><path
   style="fill:#000000;stroke:#000000;stroke-width:1.03795"
   d="m 252.81104,125.16848 c -0.082,0.75666 0.12144,1.3732 0.26779,2.08731 -0.13494,0.70062 0.28751,1.7614 -0.17749,2.22018 -0.70788,-0.0394 -1.31716,0.44009 -2.11327,0.26882 -0.70476,0.11937 -1.38462,0.39754 -2.12364,0.39858 -0.6591,0.33837 -1.07843,0.80337 -1.33895,1.45832 -0.92274,0.11728 -1.69186,0.76704 -2.67169,0.62899 -1.0805,-0.009 -2.1008,0.1723 -3.01108,0.77016 -0.69335,0.30931 -0.93935,1.38774 -1.80188,1.16562 -0.80441,-0.81479 0.14427,-1.09815 0.74005,-1.53617 0.66118,-0.77223 1.61194,-1.36801 1.95135,-2.33538 0.41518,-0.61343 1.30262,-0.547 1.66175,-1.25592 0.61758,-0.70062 0.5387,-1.6794 0.31035,-2.5492 -0.19825,-0.94557 0.64768,-1.25073 1.42199,-1.094 0.86046,0.0841 1.77801,-0.27194 2.5928,-0.11937 1.1407,0.72242 2.47966,0.23977 3.64527,-0.13804 0.21486,0.009 0.43075,0.0197 0.64665,0.0301 z"
   id="path28"
   class="motalava" /><path
   style="fill:#000000;stroke:#000000;stroke-width:1.03795"
   d="m 92.34517,59.907441 c 0.7494,0.3446 1.50192,-0.343561 2.31878,-0.09342 1.15939,0.851118 0.69335,-0.61239 1.27668,-0.637301 0.70269,-0.113136 1.85066,-0.0602 1.50918,0.94142 0.0654,0.687122 0.55634,1.362827 0.85215,1.989748 0.10276,0.813752 0.12352,1.63477 0.20344,2.450597 -1.00785,-0.03529 -1.14071,-1.331688 -1.80914,-1.886991 -0.72345,0.580214 0.17645,1.385662 -0.0872,2.137137 0.15776,1.130327 -1.22686,1.172882 -1.9939,1.469736 -0.88538,0.294777 -1.72092,0.792993 -2.53364,1.180148 -0.73487,0.0052 -0.53662,-1.212325 -1.33272,-1.567303 -0.26987,-0.836587 -1.32443,-0.395459 -1.71989,-1.107492 -0.4951,-0.586441 -0.36432,-1.572492 0.56154,-1.553809 0.84177,-0.57191 -0.78469,-0.670515 -1.15213,-0.965293 -0.85838,-0.661173 0.16607,-1.166654 0.69647,-1.564189 0.75147,-0.414141 0.38508,-1.315081 1.12306,-1.728184 0.82205,-0.07992 1.40434,0.564644 2.08731,0.935191 z"
   id="path26"
   class="tegua" /><path
   style="fill:#000000;stroke:#000000;stroke-width:1.03795"
   d="m 197.22783,108.64745 c 0.73176,0.34563 1.57354,0.16503 1.84029,-0.66222 0.57398,-0.68504 1.28913,-1.71469 2.29283,-1.53408 0.12663,0.79403 0.38508,1.55588 0.26467,2.34784 -0.48576,0.93726 -1.45313,1.52371 -1.94096,2.48692 -1.2362,0.12975 -2.20668,1.16043 -3.50931,0.96218 -1.77074,0.0934 -3.2851,-1.06805 -4.43204,-2.29802 -0.25533,-0.7058 -0.42452,-1.34622 -0.79092,-1.93266 -0.88433,-0.57814 0.55323,-0.9217 0.37263,-1.71365 0.31242,-1.62647 1.70223,-2.70801 2.87304,-3.74077 1.23308,-0.73072 2.85748,-0.49718 4.11858,0.0498 0.96426,0.31865 1.74895,1.07947 2.72047,1.42822 -0.51067,0.94349 -1.79358,0.64041 -2.49108,1.3732 -1.12202,0.46708 -1.74064,1.68356 -1.74479,2.87824 0.1422,0.11832 0.2844,0.23665 0.42659,0.35497 z"
   id="path25"
   class="ureparapara" /><path
   style="fill:#000000;stroke:#000000;stroke-width:1.03795"
   d="m 83.43438,36.575388 c 0.72553,0.173338 1.50295,0.225235 2.01466,0.843853 0.84178,-0.186831 1.3483,0.623807 1.39189,1.281867 0.77016,0.631073 0.64768,1.772816 0.29789,2.602137 0.22835,0.689199 0.0405,1.456243 0.49199,2.048912 0.0996,0.779499 -0.41933,1.732336 0.71411,1.113719 0.82725,-0.269867 0.0477,1.592213 -0.57295,0.614466 -0.63626,0.694387 -0.61343,1.739602 -0.79403,2.624972 0.66533,0.562569 1.17807,1.612973 0.47434,2.339537 -0.50548,1.327537 -0.30204,2.905219 -0.90094,4.247287 0.30516,1.090884 -0.38404,1.108529 -1.23412,0.768082 -1.012,-0.635225 -1.89633,-1.445863 -2.95711,-2.011545 -0.53559,-0.45047 -1.69497,-0.955951 -1.14486,-1.802917 0.4349,-0.675705 -0.0602,-1.579758 0.38093,-2.265842 -0.54908,-0.57191 -0.19202,-1.334803 -0.58437,-1.916054 0.34979,-0.666363 -0.21486,-1.554848 0.43698,-2.027114 0.93623,0.226273 0.88329,-0.710995 1.25903,-1.325461 -0.43386,-0.632111 0.7058,-0.873953 0.77431,-1.582872 -0.13182,-0.885371 -0.28959,-1.801879 -1.11164,-2.315664 -0.88641,-0.436976 -0.34979,-1.08777 -0.75978,-1.816411 -0.11106,-0.822055 -0.17542,-1.431331 -0.0965,-1.736488 0.52935,-0.599935 1.32961,0.193058 1.9202,0.315536 z"
   id="path23"
   class="hiw" /><path
   style="fill:#000000;stroke:#000000;stroke-width:1.03795"
   d="m 172.72186,429.43904 c 0.66844,0.46293 1.75725,-0.3747 2.37068,0.35706 0.62899,0.36536 1.51436,0.0249 2.2347,0.31969 0.98398,0.57191 2.22017,0.21278 3.30379,0.44631 1.01304,0.12352 2.05306,0.0913 3.06091,0.19618 0.65184,0.42659 1.61505,0.76808 1.42511,1.73545 0.68193,0.81894 0.21381,1.9804 0.12766,2.93428 -0.3612,0.92066 -1.35763,1.36075 -1.96172,2.11638 -0.6892,0.49821 -0.85319,1.4853 -0.85734,2.28764 0.51793,0.48264 0.66428,1.23308 1.07427,1.74271 0.15466,0.71723 1.05871,0.69128 1.18534,1.50295 0.50548,0.69854 0.18475,1.31924 0.0498,2.01985 -0.2844,1.12202 -0.92896,2.23678 -1.92332,2.84502 -0.40999,0.67674 -1.28809,0.58021 -1.94512,0.91651 -0.88018,-0.12456 -1.15212,0.21278 -1.86519,0.0581 -0.71722,-0.1121 -1.33584,-0.43282 -2.05929,-0.62588 -0.68816,-0.21693 -1.31716,-0.54285 -1.95653,-0.83036 -0.74317,-0.16711 -1.18949,-0.72345 -1.7915,-1.12825 -0.4868,-0.63834 -1.13863,-0.7795 -1.76763,-1.17496 -0.56153,-0.56153 -1.24242,-0.78157 -2.01154,-0.98294 -0.59994,-0.52105 -1.23205,-0.8262 -1.85274,-1.29432 -0.81272,-0.0156 -1.71366,-0.17126 -2.31878,-0.76704 -0.7411,-0.17542 -1.26422,-0.7577 -1.88907,-1.11165 -0.66948,-1.01407 -1.75828,-1.75724 -2.40077,-2.75679 -0.15154,-1.03898 -0.17438,-2.15893 -0.028,-3.17405 0.10794,-0.68193 0.30308,-1.395 0.4131,-2.07693 0.18787,-0.77223 0.24703,-1.26837 0.87914,-1.73545 0.96114,-0.46189 1.55174,-1.58287 2.72462,-1.59014 1.59117,-0.32384 3.28926,0.0426 4.89808,-0.19202 0.94349,-0.3446 1.91605,-0.11729 2.88134,-0.0374 z"
   id="path22"
   class="malo" /><path
   id="path21"
   style="fill:#000000;stroke:#000000;stroke-width:1.03795"
   d="m 565.36651,1120.7348 c 0.93104,-0.1474 1.35037,0.1349 1.74998,0.9061 0.0342,0.6861 0.6892,1.1719 1.19157,1.5954 0.49821,0.5957 1.36386,0.164 2.01466,0.384 0.65494,-0.7546 1.41887,0.096 2.02088,0.3996 0.76808,0.6093 1.33065,1.4687 1.2279,2.488 0.49095,0.466 0.70165,1.1687 0.6757,1.8413 -0.38093,0.8438 1.26422,1.0981 0.0685,1.5808 0.3062,0.6269 -0.66636,1.2974 -0.23457,2.0448 0.52209,0.9746 -0.67571,0.8905 -1.00474,1.4853 -0.17333,0.6902 0.22731,1.7489 -0.72656,1.997 -0.73487,0.2356 -1.45105,0.7411 -1.44483,1.6005 0.007,1.0981 -1.14382,0.5345 -1.59221,1.1096 -0.63419,0.2242 -1.60363,0.9227 -2.05099,0.038 -0.32487,-0.6571 -1.30158,-0.6104 -1.75828,-0.1215 -0.78469,0.5574 -1.37217,-0.2107 -1.8517,-0.7598 -0.84801,-0.4535 -1.85482,-0.8231 -2.80143,-0.438 -0.60616,-0.6497 -1.4853,-0.5646 -2.29386,-0.5989 -0.28544,0.6788 -1.10438,1.4926 -1.22063,0.2606 0.16088,-1.0722 -0.53454,-1.23 -1.44483,-1.1034 -1.0421,-0.3321 -0.49198,-1.859 -1.33376,-2.4298 -0.64457,-0.3695 -1.07843,-0.9331 -1.16147,-1.696 -0.7577,-0.3353 -0.9985,-1.092 -1.01615,-1.8642 -0.92689,-0.5044 -0.43075,-1.6649 -0.55841,-2.517 -0.22524,-0.7774 0.38611,-1.2466 0.67051,-1.8361 -0.11106,-0.8356 0.32384,-1.5269 1.07739,-1.8767 0.45255,-0.4774 0.43594,-1.4136 1.30574,-1.4053 0.60305,-0.2699 1.34311,-1.1034 1.79462,-0.1827 0.61031,-0.013 1.24969,-0.5522 1.94615,-0.6425 0.74317,-0.1381 1.47804,-0.5948 2.21913,-0.2367 0.70581,0.1319 1.30159,-0.3238 2.01051,-0.053 0.81687,-0.1775 1.69705,-0.093 2.52118,0.03 z m -13.60543,12.2281 c 0.73694,0.6528 -0.58229,0.4837 0,0 z m 3.76567,5.6412 c -0.67985,-0.1764 0.42141,-0.8168 0.64561,-0.5293 0.62484,-0.075 0.13286,0.2013 -0.16088,0.097 -0.27817,-0.011 -0.42971,0.2118 -0.48473,0.4318 z"
   class="aneityum " /><path
   style="fill:#000000;stroke:#000000;stroke-width:1.03795"
   d="m 228.36838,208.72959 c 0.46396,0.5771 1.17184,-0.10276 1.83405,0.44009 0.88641,-0.14012 1.40539,1.3182 2.39144,0.97671 0.82101,-0.50548 1.2009,0.67882 1.9721,0.40584 -0.19513,0.90821 1.1843,0.18372 1.51022,0.93519 0.87083,0.52001 0.0685,1.40746 0.84281,1.84963 0.18994,0.46085 1.36802,1.13447 0.96841,1.61712 -0.41103,0.41518 -1.31612,0.92378 -1.07843,1.36075 1.0805,-0.13286 0.95595,0.91132 0.76081,1.63166 0.19306,0.69231 0.97775,1.10334 0.60617,1.98663 -0.0768,0.69854 -0.56153,1.2964 -0.96426,1.8953 -0.38923,0.92896 0.20967,2.17346 -0.56672,3.02562 -0.42556,0.63315 -1.17081,1.094 -1.5372,1.72403 0.028,0.94246 -0.66429,1.65864 -0.49614,2.62601 -0.10899,0.73798 -0.31139,1.47804 -0.61447,2.16101 -0.23146,0.79818 -0.4131,1.66072 -0.9383,2.3468 -0.6207,-0.36224 -1.10853,0.69958 -1.53305,1.08985 -0.47331,0.60512 -1.31508,0.55634 -1.94408,0.87084 -1.12618,0.33214 -2.28141,0.23146 -3.4325,0.12974 -0.71826,-0.11521 -1.4033,-0.13285 -2.07071,-0.49199 -0.59993,0.10172 -1.29743,0.54078 -2.04476,0.21278 -1.41161,0.11937 -2.54816,-1.04417 -3.95977,-0.95179 -0.51794,0.46084 -1.45105,0.42659 -2.07382,0.21693 -0.67778,0.16192 -1.44587,0.14635 -2.12365,0.44631 -0.82413,-0.12663 -1.79357,0.49822 -2.49419,-0.0799 0.40584,-0.89679 -0.22731,-1.34622 -1.1023,-1.16665 -0.72656,-0.13597 -1.25903,-0.50029 -1.93785,-0.71619 -0.53454,-0.62277 0.35498,-1.34206 0.80026,-1.7479 0.70892,-0.44113 1.09504,-1.25592 1.34311,-2.00428 -0.34045,-0.69231 0.56775,-1.27979 0.45565,-2.11119 0.54078,-0.62381 0.89887,-1.1241 0.0955,-1.73545 0.2927,-0.66948 -0.53974,-1.02238 -0.73591,-1.73545 -0.0436,-0.73072 -0.60512,-1.3483 -0.54077,-1.91709 0.79299,-0.41414 0.9819,-1.5206 0.26883,-2.09666 0.0249,-0.92066 -0.055,-1.80811 -0.27817,-2.68725 0.68089,-0.54285 0.62692,-1.33792 0.61239,-2.12468 0.1204,-0.7878 0.78157,-1.39293 0.78365,-2.22017 0.44009,-0.72345 1.25177,-0.78573 1.96795,-0.43906 0.87395,0.15985 0.62796,-1.1407 1.53928,-1.23515 0.53039,-0.49095 1.41368,-0.13494 1.68459,-0.76705 -0.28647,-0.98294 0.48265,-1.10022 1.11268,-0.40272 0.65391,0.0415 1.35245,0.69646 1.91086,0.25326 0.51379,-0.92897 1.02238,0.0228 1.63685,-0.3882 0.96737,0.2159 1.34414,-1.0203 2.27726,-1.0805 0.73694,-0.10483 1.4251,-0.33215 2.01673,-0.79299 0.9736,-0.0623 2.00844,0.0924 2.817,0.62899 0.0872,0.0208 0.1723,0.0415 0.25845,0.0612 z"
   id="path20"
   class="gaua" /><path
   id="path19"
   style="fill:#000000;stroke:#000000;stroke-width:1.03795"
   d="m 217.82489,135.13902 c 0.58852,0.67674 1.2881,1.26629 2.08524,1.64722 0.72241,-0.10587 1.4469,-0.23354 1.98664,0.58437 0.86253,0.76393 1.42614,1.74894 2.16412,2.60525 1.25073,0.1723 -0.18579,0.96114 0.7193,1.55069 0.002,0.81272 0.76912,1.26422 0.75978,2.04788 -0.23458,0.77327 0.43593,1.47388 1.10645,1.77489 -0.79196,0.8096 1.40642,0.94142 -0.15154,1.12929 -0.0436,0.34356 1.21855,0.79195 1.15108,1.49568 0.32177,0.61135 1.38463,1.10645 0.7795,1.8735 -0.50029,0.9082 0.54181,1.01615 0.96945,1.59429 0.70373,0.15777 0.6757,1.98871 0.23561,1.00473 -0.0706,-0.88329 -1.12617,-1.16354 -1.49049,-0.28543 -0.28336,0.69854 -1.3566,0.85008 -1.12618,1.72195 -0.21797,0.72138 0.35394,1.3265 -0.0156,2.02919 0.0218,0.80545 0.55842,1.47597 0.39131,2.31567 -0.15673,0.87188 0.89367,0.97775 1.40538,1.31197 0.72761,0.81063 1.9856,0.301 2.39767,-0.5906 0.35601,-1.06182 0.96944,-0.23457 1.42095,0.3062 0.62277,0.20447 1.63684,0.54803 0.70995,1.13967 -0.71826,0.76704 -1.73129,0.76704 -2.70178,0.85319 -0.64664,0.34252 -0.98293,1.26941 -1.83717,1.34103 -0.96736,0.0924 -0.4432,1.15316 -0.93207,1.6275 -0.38923,-0.62692 -1.26111,-0.77223 -1.82472,-0.30619 0.99228,0.88018 -0.62381,0.65598 -0.95906,0.0529 -0.58956,-0.8698 -1.34311,-0.15776 -1.99805,0.0789 -0.57399,0.46604 -1.28914,0.66117 -1.95342,0.96114 -1.0037,0.15673 -2.05618,0.0903 -3.00175,-0.32592 -0.44528,0.0789 -1.23412,1.38359 -0.58644,1.70431 1.09192,0.42972 -0.19099,1.14901 0.56153,1.78113 0.62899,0.65286 1.59429,1.16146 1.4334,2.21809 0.1339,1.13967 -1.69393,1.02031 -1.77593,2.0977 -0.7961,0.93207 -2.05514,1.25176 -3.24981,1.21232 -0.68816,-0.57814 -1.40954,-1.33273 -1.20921,-2.3084 -0.0903,-1.44586 0.0675,-2.93635 0.59474,-4.27012 0.2024,-1.6109 -1.32546,-2.76821 -2.56581,-3.47817 -0.81271,-0.0125 -1.11476,-0.53558 -1.41057,-1.1708 -1.0639,-1.20506 -2.32812,-2.26065 -3.11904,-3.66811 -0.7359,-0.88434 -1.88491,-1.50814 -2.35718,-2.5544 -0.17541,-1.06182 -0.55738,-2.0541 -0.47849,-3.14394 0.027,-0.61136 1.14589,-1.11787 0.52624,-1.94304 -0.27091,-0.66429 0.77638,-1.29536 0.12247,-1.95031 0.0768,-0.67674 -0.2626,-1.52267 0.29374,-2.04164 -0.083,-0.81168 0.0872,-1.66695 -0.20447,-2.44126 0.7276,-0.54181 0.6456,-1.58183 1.13863,-2.21083 0.36951,-0.56049 0.83036,-1.094 1.19987,-1.68978 0.219,-0.793 1.25176,-0.53662 1.66071,-1.29017 0.61136,-0.50548 1.13863,-1.10334 1.75414,-1.59741 0.78988,-1.11994 2.08005,-1.71365 3.4273,-1.78112 0.75044,-0.0747 0.76497,-1.20817 1.6846,-0.76393 0.76289,0.0187 1.45728,0.18683 2.02503,-0.29685 l 0.12767,0.0259 z m 18.13193,26.11479 c -1.11268,0.60305 -0.55219,-0.62173 -0.11833,-1.11995 0.66325,0.0218 2.04165,-0.62173 1.0639,0.41622 0.39339,0.82309 -0.39961,0.50029 -0.94557,0.70373 z m 5.42847,-25.75255 c -0.36432,0.55323 -1.76243,-1.0722 -0.65287,-0.90094 0.57607,-0.28128 0.60305,0.54181 0.65287,0.90094 z m -2.31462,24.96163 c -0.15154,1.48323 -0.22524,-0.0166 -1.08777,-0.13804 0.42348,-0.0592 0.83762,-0.38924 1.08777,0.13804 z m -9.42354,-14.33926 c -0.79092,1.19364 -0.9518,-0.78677 0,0 z"
   class="vanualava" /><path
   style="fill:#000000;stroke:#000000;stroke-width:1.03795"
   d="m 295.32127,373.97936 c 0.33007,0.84281 1.74583,-0.3664 1.19364,0.9383 -0.96944,1.13344 0.24184,2.76199 -0.55115,3.97639 -0.48161,0.68297 -1.04521,1.41368 -1.69705,1.89737 -0.93,0.34148 -0.38092,-1.11372 -0.57813,-1.65242 -0.90198,-0.25222 -1.54136,0.66325 -1.9472,1.34415 -0.60512,0.66636 -0.73902,1.58494 -1.33895,2.28245 -0.38093,0.63833 -0.94661,1.231 -1.53305,1.6493 -0.82517,0.23665 -1.12721,1.12202 -1.477,1.81433 -0.42764,0.65287 -1.1459,1.05975 -0.99851,1.94823 0.10795,1.10334 -0.6892,1.98767 -0.59682,3.0796 -0.19202,1.00784 -0.51482,2.01154 -1.20921,2.78378 -0.48784,0.45462 -0.93519,1.18118 -1.59118,1.38669 -0.9165,0.6072 -1.2829,1.91502 -2.45059,2.22018 -0.9736,0.25948 -0.73176,1.56107 -1.65138,1.91086 -0.67778,0.61343 -1.2061,1.65034 -2.26377,1.53409 -0.83762,0.71203 -1.59532,1.54654 -1.92435,2.59902 -0.51275,0.74006 -1.37529,1.33273 -2.31255,1.17808 -0.82725,0.1287 -0.67882,1.29639 -1.78943,0.87291 -0.77223,0.1038 -1.05559,-1.35556 -1.82782,-0.62692 -1.00474,0.25222 0.23042,-1.20817 -0.85216,-1.2445 -1.25177,-0.0903 -2.57204,0.14012 -3.78125,-0.0311 -1.10853,-0.31865 -2.34161,-0.71411 -3.51449,-0.36743 -1.01719,-0.13494 -1.29433,1.39708 -2.34681,1.13655 -0.7795,-0.24807 -1.31508,0.35187 -2.08524,0.26053 -0.77223,-0.21797 -1.37943,0.15465 -2.16723,0.004 -0.63834,-0.36951 -1.46974,-0.23562 -2.09251,-0.69647 -0.53558,-0.47019 -1.21128,-0.8096 -1.74583,-1.21959 -0.79091,-0.0457 -0.82724,-1.33791 -1.8081,-1.04313 -0.78469,-0.29271 -0.44113,-1.36802 -1.04211,-1.7614 -0.6456,-0.51275 0.0913,-1.24658 -0.10898,-1.87039 0.43698,-0.48991 0.50756,-1.28186 1.1625,-1.61816 0.77431,-0.38612 1.45521,-1.00266 1.95238,-1.68252 1.02342,-0.44528 1.73234,-1.44897 2.32812,-2.29179 0.95388,-0.47745 1.39916,-1.56626 2.23263,-2.22225 0.67986,-0.53765 1.18742,-1.33895 2.04476,-1.64307 0.48057,-0.66948 1.15212,-1.09503 2.00013,-1.03172 0.78054,0.0104 1.45209,-0.14531 2.00428,-0.71411 1.02757,-0.64249 1.22893,-1.98559 2.20979,-2.6997 0.77846,-0.89679 1.50088,-1.84651 2.55024,-2.45475 0.70892,-0.40895 1.29121,-1.09504 1.96795,-1.46662 0.76497,-0.083 1.40123,0.39026 2.19423,0.29166 0.46292,-0.6892 1.29432,-0.63523 1.9202,-1.00785 0.49303,-0.63419 1.22374,-0.67986 1.8953,-0.9902 1.09296,-0.71826 2.10496,-1.80603 3.52902,-1.74064 0.81583,0.0301 1.29225,-0.75148 2.0375,-0.99021 0.7276,-0.6757 1.95757,0.0436 2.74745,-0.55218 1.07531,-0.17957 2.35303,0.56464 3.21556,-0.36225 0.69543,-0.45047 1.7313,0.13805 2.31359,-0.62173 0.74421,-0.12663 1.42822,-0.44632 2.27,-0.31242 0.84177,-0.20967 1.34103,0.59889 2.18488,0.3747 0.46189,0.64249 0.90094,0.60823 1.07946,-0.35394 0.81064,-0.80545 0.64146,1.40746 1.20091,0.0311 -0.0166,-1.0286 0.57087,-1.07323 1.04833,-0.24495 z"
   id="path18"
   class="ambae" /><path
   style="fill:#000000;stroke:#000000;stroke-width:1.03795"
   d="m 316.68226,391.75839 c -0.98813,0.0291 -1.95965,0.0488 -2.88965,-0.31554 -0.78573,-0.0727 -1.45105,-0.48265 -1.86001,-1.15939 0.75563,-0.20344 2.08421,-0.15465 2.01985,-1.22582 -0.10794,-0.77431 -0.37366,-1.49153 -0.26675,-2.30009 -0.21693,-0.87292 0.92585,-1.04003 0.76808,-1.90879 -0.18579,-0.6975 -1.19675,-0.86046 -1.68978,-1.21129 -0.0166,-0.73279 -0.21485,-1.54239 -1.09815,-1.65034 -0.30723,-0.33837 0.30101,-1.29951 0.3145,-1.93369 0.13493,-0.90821 0.58955,-2.04995 -0.34252,-2.70075 -0.68401,-0.49614 -0.62485,-1.29536 -0.79922,-2.03438 -0.0675,-0.8916 -0.31139,-1.86519 -0.19514,-2.71735 0.55842,-0.50963 0.37782,-1.33169 0.89575,-1.86 0.58748,-1.04833 0.16815,-2.33227 0.30516,-3.48543 -0.0633,-1.20714 -1.12825,-2.23159 -0.61758,-3.45534 0.55323,-1.73129 -0.69646,-3.37022 -0.65806,-5.11605 -0.2024,-1.60778 -0.15673,-3.29964 -0.79299,-4.79843 -0.13701,-1.03899 -0.98294,-1.70951 -1.6109,-2.49004 -0.54181,-0.66637 -0.48161,-1.6026 -1.05559,-2.23159 -0.67675,-2.37587 0.0675,-4.92611 -0.56257,-7.30405 -0.54077,-0.69646 -1.19261,-1.33792 -1.1459,-2.30321 -0.54077,-1.37009 0.26675,-2.86785 0.31554,-4.28984 0.18994,-0.83347 -0.004,-1.50088 -0.72864,-1.97937 -1.01719,-0.82932 -0.47538,-2.2949 -0.61447,-3.4325 -0.16192,-0.8698 0.50652,-1.64099 0.14428,-2.51391 -0.55219,-1.49568 -1.07636,-3.0142 -1.34622,-4.60434 -0.30931,-1.54654 -0.20863,-3.18547 0.23146,-4.70398 0.45774,-0.98087 1.60156,-1.08466 2.56789,-0.97464 0.86253,0.0145 1.41991,0.86876 2.13817,1.2663 0.20655,1.56004 0.64664,3.19377 1.92124,4.23068 0.44632,0.63107 0.50445,1.40434 0.87292,2.09458 0.54804,1.24761 -0.1204,2.50146 -0.51379,3.66188 -0.0259,0.67259 0.13079,1.45313 0.67986,1.87662 0.61239,0.74005 1.83198,1.20817 1.67317,2.34887 0.0862,0.95076 -0.93207,1.58184 -0.95595,2.55336 0.52105,0.80233 1.59014,0.84385 2.03646,1.7313 0.62692,0.50133 0.62173,1.2528 1.05352,1.85792 0.62173,0.57399 0.87395,1.27876 0.52831,2.09043 -0.22938,0.75874 -0.43697,1.56938 -1.17911,1.99494 0.0758,0.83866 0.45878,1.57665 0.41414,2.44645 0.26157,1.58806 0.49718,3.24463 1.2279,4.68634 0.55841,0.5771 1.05144,1.23516 0.86876,2.0842 0.0747,1.1324 -0.1204,2.32916 0.13701,3.42004 0.26053,0.94765 0.12663,2.20875 1.02861,2.89276 0.92273,1.0639 2.02607,2.16309 2.28141,3.59234 -0.0592,1.08674 -0.19202,2.16205 -0.10379,3.26332 0.69127,0.64664 0.0114,1.42718 0.18786,2.19214 0.0758,1.25904 0.0592,2.54402 -0.20655,3.76257 -0.0291,0.95906 1.11787,1.48946 0.84385,2.50042 -0.0374,0.9985 -0.2408,2.00012 0.0467,2.99448 -0.20759,0.58852 -1.13136,0.92896 -1.44171,1.59221 -0.0675,0.96426 1.30055,0.26987 1.66695,1.00785 -0.001,0.72241 -0.41311,1.43237 -0.33215,2.20876 -0.52624,0.31242 -1.67628,0.92896 -0.7359,1.38254 0.85527,-0.0737 1.52474,0.46812 1.29432,1.36283 0.002,1.33065 -0.10691,2.93636 -1.38047,3.6951 -0.84282,0.28855 -0.25222,1.43029 -1.04937,1.83406 -0.7494,0.42971 -0.56983,1.15212 -0.54596,1.79461 -0.28647,0.35083 -1.27771,0.14427 -1.74479,0.28025 z"
   id="path17"
   class="maewo" /><path
   style="fill:#000000;stroke:#000000;stroke-width:1.03795"
   d="m 331.70968,485.68446 c -1.10126,0.17645 -2.34369,-0.15258 -3.29445,0.53765 -0.81998,0.008 -1.34103,-0.50963 -2.14855,-0.40583 -0.81583,-0.44944 -0.69128,1.71054 -1.24243,0.52727 -0.27298,-0.64768 -0.85008,-1.0504 -1.06182,-1.696 -1.19883,0.33525 -0.6975,-0.69335 -1.27564,-1.25073 -0.66636,-0.56257 -0.53039,-1.3265 -0.0436,-1.93266 0.83555,-1.04729 0.54907,-2.44645 0.50859,-3.68576 -0.40064,-0.47227 -1.30677,-1.2663 -1.07946,-1.76244 0.82724,-0.98812 0.75666,-2.45475 0.73175,-3.67434 -0.17853,-0.80129 -0.66532,-1.47804 -0.99435,-2.18177 -0.49822,-0.61757 -0.4048,-1.53512 -0.80234,-2.22743 -0.16503,-1.11476 -0.54077,-2.15894 -1.20817,-3.0661 -0.26468,-1.5424 -0.20967,-3.13357 -0.3529,-4.67181 0.11002,-1.56938 0.20136,-3.17924 0.006,-4.73409 -0.24495,-1.15004 -0.39649,-2.36237 -1.26318,-3.24047 -0.54077,-1.22478 -2.30009,-1.65346 -2.23886,-3.17198 0.0259,-0.79506 -0.37781,-1.4469 -0.28336,-2.23678 -0.31968,-0.71099 -1.64307,-0.68297 -1.38254,-1.67109 0.17852,-0.73072 0.26571,-1.48427 0.20655,-2.27415 -0.2927,-0.73072 -0.78365,-1.39812 -1.16043,-2.04891 -0.14012,-0.68505 0.74006,-1.52371 -0.10898,-2.05618 -0.72553,-0.33837 -0.9819,-0.97567 -1.56834,-1.51229 -0.12352,-1.06597 0.80856,-1.91813 1.24865,-2.8419 -0.40376,-1.07117 -1.60259,-2.05099 -1.1158,-3.29964 0.22731,-0.6975 1.477,-1.10438 1.30886,-1.71988 -0.4868,-0.72449 0.0332,-1.50295 0.61239,-1.99806 0.31761,-0.67362 -0.20967,-1.44793 0.0612,-2.20979 0.35809,-0.82828 -0.88018,-1.36801 0.005,-2.04995 -0.20033,-0.88225 0.61135,-1.22063 0.63003,-2.02296 -0.10795,-0.85838 0.55219,-1.4168 0.66221,-2.14855 -0.42452,-0.52832 -0.63107,-1.38359 0.27817,-1.70639 0.65599,-0.40895 1.44898,-0.61447 1.8652,-1.32442 -0.45878,-0.60098 -1.33792,-0.63627 -1.75414,-1.31924 1.04937,-0.63418 0.47227,-2.03853 0.86877,-3.02458 -0.94039,-0.3664 -0.246,-1.23412 -0.35706,-1.94512 0.20863,-0.74213 -0.51897,-1.44897 -0.15361,-2.08524 0.45981,-0.76081 0.53661,-1.7697 0.63314,-2.65196 0.20863,-0.76496 -0.83036,-1.45416 -0.0643,-2.07174 0.34252,-0.75148 0.86876,-1.21336 1.73234,-1.05352 0.62277,-0.28855 1.52474,-0.50756 1.96068,0.2325 0.0187,1.08881 0.0882,2.2565 -0.0332,3.33804 -0.53973,1.06702 -1.64411,2.16517 -1.15628,3.43977 0.77224,1.18014 2.106,1.94719 3.51554,1.98248 1.12825,-0.0519 1.46247,1.17392 1.56107,2.08109 0.21071,1.13136 0.055,2.33123 0.0259,3.44703 0.64457,1.05974 0.48576,2.32915 0.383,3.50515 0.1256,0.63315 0.25638,1.23827 -0.20759,1.83821 -0.63107,0.45358 -1.03068,1.17184 -1.40227,1.81952 -0.10587,1.05767 0.11937,2.14648 0.78885,3.00071 0.39338,0.67052 -0.20552,1.50295 0.52001,2.14025 0.4266,0.81272 0.47642,1.77593 0.89679,2.6011 0.17645,1.35868 1.68978,2.0977 1.77489,3.52176 0.41829,1.4386 0.93415,2.84294 0.98501,4.3625 0.007,0.75874 0.65806,1.35868 0.78469,1.99598 -0.0654,1.33065 -0.21485,2.67168 0.31346,3.93694 0.16504,1.37736 1.49672,2.41219 1.24035,3.84871 0.30412,1.48323 1.54239,2.56062 2.00428,3.97119 0.4131,1.46144 0.66948,2.95712 0.55323,4.48187 -0.20552,1.05559 0.5636,1.91501 1.32442,2.53778 0.13701,0.71619 -0.8397,1.14901 -0.29997,1.92021 0.0758,0.71618 1.10127,1.09711 1.13967,1.70535 -0.42971,0.62069 -1.13863,1.34622 -0.28647,1.93681 0.7961,1.06805 0.45669,2.53052 1.16146,3.65254 0.69335,2.06552 0.8397,4.31268 0.56153,6.46435 0.0446,0.81375 -0.68504,1.12098 -1.18845,1.59533 -0.3529,0.75666 0.0208,1.38358 0.18372,2.0624 -0.13701,0.70684 0.45358,1.66279 -0.027,2.18592 -0.9819,0.55115 -1.52267,1.54862 -2.17969,2.38624 -0.25949,0.76082 -0.94142,1.22167 -1.30263,1.9171 z"
   id="path16"
   class="pentecost" /><path
   style="fill:#000000;stroke:#000000;stroke-width:1.03795"
   d="m 323.95724,572.96973 c 0.25119,0.82725 0.4567,1.03795 1.21129,1.395 0.0301,0.66222 1.42199,1.12306 0.79507,1.63166 -0.83036,0.44113 -0.74214,1.40953 0.10691,1.77904 0.84592,0.45774 1.75517,1.08674 1.76762,2.16413 0.22212,0.90924 -0.23561,2.02192 0.28544,2.81388 0.59474,0.26571 1.50814,0.15465 1.77385,0.99643 0.38404,0.73279 -0.93623,1.5673 0.002,2.14751 -0.14012,0.74318 -0.58333,1.36179 0.12248,1.95654 0.20863,0.64145 0.60512,1.21025 0.96633,1.7697 0.67259,1.12099 2.32189,1.33688 3.26539,0.46604 0.93104,0.36951 1.00473,-0.90924 1.79253,-0.75355 0.80441,-0.007 1.55485,-0.2024 2.34784,0 0.7629,-0.11729 1.38774,0.0592 2.05099,0.44528 1.08466,0.58852 1.99909,1.54239 2.10081,2.82426 0.11936,1.12929 0.52313,2.14025 1.23308,3.02769 0.66221,0.57503 0.0654,1.42199 0.4567,1.94201 0.45877,0.67363 1.0338,0.8999 1.72922,0.42452 0.72864,-0.29063 1.7915,-0.0623 1.55485,0.93519 0.1505,0.66117 -0.99124,1.40435 -0.0592,1.88595 1.10334,0.76601 1.46558,2.28453 2.76821,2.84502 1.46454,0.59163 3.20622,0.36121 4.6116,1.12929 0.68609,-0.002 1.49154,-0.25534 1.96276,-0.72034 0.81998,-0.94245 1.6711,-2.41115 3.11074,-2.08108 0.8698,-0.0612 1.48323,0.69854 2.23159,0.96944 1.02653,0.79403 2.05098,1.60882 2.67064,2.76925 0.36121,0.70995 1.01615,0.89367 1.67006,1.19779 1.02446,0.0529 0.4432,1.42718 -0.3664,1.01304 -0.64249,-0.29374 -1.74894,-0.23354 -1.5974,0.72034 0.29893,0.63107 -0.25222,1.5372 0.32384,1.95238 0.0436,0.6757 1.18845,1.14589 0.80649,1.7915 -0.46189,0.64768 -0.10691,1.47285 -0.2242,2.21498 -0.88226,0.5252 -1.11061,-0.59059 -1.76348,-0.80545 -0.93104,0.10795 -1.89944,0.15673 -2.70281,-0.38715 -1.08777,-0.40999 -1.90568,-1.36075 -2.9893,-1.82887 -0.83347,-0.66117 -1.89944,-0.7577 -2.85436,-1.17184 -0.64975,-0.49718 -1.6576,0.055 -2.28867,-0.61343 -0.7193,-0.28751 -1.25177,-0.8532 -1.11165,-1.67318 -0.35186,-0.70269 -1.40953,-0.19305 -2.03645,-0.52105 -0.99955,0.33734 -1.0722,-0.91131 -1.7614,-1.10645 -0.0654,-1.14589 -1.52267,-0.96633 -2.33746,-0.89886 -1.47181,0.51586 -3.01421,0.17437 -4.54518,0.19617 -0.65391,0.027 -1.2663,0.50548 -1.88803,0.73591 -0.66636,0.28958 -1.22374,0.74628 -1.86727,1.10749 -0.70165,0.33214 -0.93208,1.45313 -1.84028,1.19468 -0.68194,0.0467 -1.53409,0.24703 -1.50814,1.14797 0.15465,0.94038 -0.17126,1.4168 -1.14901,1.29224 -0.31139,-0.93 -1.33273,-0.8179 -1.16251,0.19618 -0.27713,0.39442 -0.98605,-0.46812 -1.76451,-0.14635 -1.06701,0.20447 -0.5169,-1.42199 -1.5289,-1.13967 -0.75562,-0.10899 -1.28394,-0.65287 -2.09769,-0.49822 -0.74421,-0.13389 -1.72922,0.13909 -2.21083,-0.59267 -0.88018,0.53974 -1.81434,-0.23457 -2.75057,-0.12351 -0.88122,-0.62589 -0.64249,-1.8652 -1.09296,-2.71424 -0.71618,-0.80441 -2.18384,-0.55842 -2.52948,-1.75206 -0.25845,-0.92377 0.3446,-2.21083 -0.48057,-2.9021 -0.23042,-0.83451 0.0924,-1.85378 -0.4868,-2.5492 0.29167,-0.72553 0.5086,-1.29225 -0.27402,-1.66384 0.0934,-0.80337 -0.33422,-1.84547 -1.29743,-1.70535 -0.48888,-0.31657 -0.98813,-1.04002 -1.20714,-1.62023 -0.42659,-0.87188 -0.46188,-2.01985 -1.44586,-2.49316 -0.41518,-0.60097 -0.10898,-1.61401 0.78365,-1.25384 0.87707,-0.36121 0.47434,-1.23516 0.57918,-1.9555 0.29477,-0.98605 -0.28025,-2.20252 0.65598,-2.92701 -0.79922,-0.64457 0.41829,-1.22374 -0.007,-2.06552 0.68712,-1.10438 2.4288,-1.45832 2.68413,-2.92183 0.547,-0.16088 1.54032,-0.84696 1.34207,-1.38566 -0.30931,-0.55426 -0.19929,-1.44067 0.18994,-1.88076 0.80545,-0.15985 0.96737,-1.36283 0.0913,-1.59948 -0.58436,-0.4785 -0.84385,-1.12825 -0.86046,-1.86727 -0.94038,-0.74836 -0.0249,-1.07532 0.79611,-0.8999 0.75667,-0.16607 1.65968,0.35186 2.30217,-0.004 0.28025,-0.96841 1.04833,-1.06079 1.8652,-0.63627 0.5117,0.0623 0.75043,0.42764 1.07946,0.78054 z"
   id="path15"
   class="epi" /><path
   style="fill:#000000;stroke:#000000;stroke-width:1.03795"
   d="m 492.11638,995.2291 c 0.54596,0.6072 1.28602,0.2554 1.95134,0.4941 0.70166,-0.056 1.59014,0.1692 1.48012,1.149 -0.24911,0.5958 0.10276,1.5642 -0.48161,1.9555 -0.81271,0.1827 -1.51125,0.8034 -1.44171,1.6846 -0.34045,0.7089 -0.35913,1.3556 -0.26156,2.1299 -0.0177,0.7504 -0.38923,1.3441 -0.0145,2.0914 -0.15051,0.6934 -0.51275,1.4926 -0.10795,2.1714 0.4131,0.573 0.0768,1.0774 0.56879,1.6763 0.44528,0.7255 -0.0695,1.3431 0.0394,2.0396 0.13701,1.3109 0.0758,2.8325 1.15212,3.7729 0.54492,0.6757 0.57918,1.5289 1.05871,2.2544 0.40584,0.6249 0.79299,1.3888 1.54862,1.5155 0.36536,0.6746 1.21232,0.7795 1.82783,0.9725 0.66117,0.2118 1.49672,0.3872 1.79669,-0.355 0.81686,-0.059 1.24553,1.0017 2.12779,0.738 0.74213,0.1536 1.54032,-0.3332 2.21291,-0.014 0.71514,0.466 0.0893,1.4479 0.9082,1.7884 0.68816,-0.1754 1.28187,0.3228 1.8216,0.7546 0.87396,0.036 0.77431,1.6057 1.66487,1.34 0.78365,0.7286 -0.50859,1.2154 0.22835,1.7572 0.78054,0.3747 1.67421,-0.062 2.4122,-0.1349 0.55634,0.3737 1.80084,-0.2865 1.75724,0.6664 0.89783,0.4006 0.91444,0.9663 0.32799,1.6773 0.17023,1.0161 1.42511,0.2076 0.8532,-0.4463 0.26468,-0.8325 1.57872,-0.848 1.20091,0.2076 -0.32488,0.6611 -0.10588,1.3929 -0.17749,1.9772 -0.39442,0.9819 -0.95284,0.5668 -1.65657,0.8595 -0.5771,0.411 -1.65449,0.219 -1.53409,1.2196 0.34564,0.631 -0.78365,1.233 -1.28913,1.5351 -0.77327,0.301 -0.64561,1.3763 -1.15212,1.9513 -0.19722,0.7515 0.35082,1.4085 0.18475,2.1994 -0.19929,0.8211 0.45255,1.504 0.12248,2.243 -0.12352,0.7484 0.27505,1.8455 -0.38197,2.3261 -0.69023,0.5926 0.0353,1.8008 -0.83658,2.3343 -0.46916,0.5512 -1.36283,0.5771 -1.47389,1.4241 -0.62485,0.6165 -0.18476,1.287 -1.02965,1.6617 -0.62277,0.5086 -1.5372,0.046 -2.29075,0.1682 -0.68297,-0.3913 -1.28083,-1.0048 -2.12676,-0.6809 -0.80129,0.5833 -1.4168,-0.4681 -2.22225,-0.5408 -0.70995,-0.3134 -1.15627,-1.1002 -1.9202,-0.6477 -0.5252,-0.3062 -1.33792,-0.4971 -1.93785,-0.9102 -0.76497,-0.05 -1.35037,-0.4775 -1.95446,-0.8885 -0.99851,0.2262 -0.93727,-0.4443 -1.35037,-1.1013 -0.36951,-0.628 -1.42614,-0.096 -1.68044,-0.9871 -0.26779,-0.7483 -0.83866,-0.9767 -1.37113,-1.3836 -0.10587,-0.7141 -0.31139,-1.5693 -0.88745,-2.0219 -1.16873,-0.2107 -1.43133,-1.5351 -2.31877,-2.0997 -0.66637,-0.3706 -1.53202,-0.1464 -2.08213,-0.7276 -0.96944,0.3363 -1.13863,-0.7141 -1.36075,-1.4023 -0.37159,-0.7245 -0.21278,-1.6503 -0.78054,-2.3271 -0.40687,-0.574 -0.96114,-0.7868 -1.32442,-1.4054 -0.17334,-0.6227 -0.59994,-1.3711 -0.87499,-1.9793 -0.51483,-0.6238 -1.47493,-0.3031 -1.78943,-1.2093 -0.46188,-0.5978 -0.70061,-1.2766 -1.02238,-1.9243 -0.14012,-1.2476 -1.20402,-2.1195 -1.24553,-3.3941 -0.26261,-0.7536 -0.41311,-1.5611 -1.0639,-2.1226 -0.80026,-0.6165 0.0488,-1.3275 -0.58229,-1.8621 -0.47123,-0.7992 -0.76082,-1.8984 -0.31139,-2.7381 0.2024,-1.5974 1.17185,-2.9 1.92228,-4.2712 0.47954,-0.7068 0.69543,-1.6005 1.18327,-2.3416 0.40064,-0.8791 0.4733,-1.8724 0.9985,-2.6706 -0.18683,-0.8065 -0.31968,-1.6088 -0.26467,-2.4423 -0.88226,-0.5221 -0.0218,-1.2653 -0.0872,-1.9783 -0.25741,-0.6965 -0.34252,-1.4054 0.26571,-1.9804 0.62174,-0.2927 1.43341,-0.4962 2.03542,-0.9643 0.69128,-0.2636 0.89783,-1.1282 1.72922,-1.0795 0.85216,-0.684 2.02712,-0.6456 2.96127,-1.1272 0.70581,-0.1526 1.37113,-0.2584 1.76659,-0.8968 0.62588,-0.466 1.30782,0.2647 1.89737,0.4017 0.77224,0.5688 1.22686,-0.8926 1.77697,-0.2927 0.26675,0.1308 0.6155,0.1308 0.90613,0.2118 z"
   id="path14"
   class="tanna" /><path
   id="path13"
   style="fill:#000000;stroke:#000000;stroke-width:1.03795"
   d="m 459.2736,888.32455 c 0.22316,0.58437 1.19364,-0.007 1.71573,0.59371 0.68608,0.16192 1.91813,0.0342 1.88699,1.01823 0.72034,-0.49718 1.35868,0.5937 1.8351,1.05352 0.46707,0.56568 1.03068,1.05248 1.1843,1.78631 0.62069,0.63107 -0.21486,1.6794 0.93519,1.60155 0.6238,0.7193 1.46973,1.3265 1.44275,2.37587 0.0789,0.74628 0.0145,1.51852 0.24288,2.19422 -0.14739,0.70269 -0.35706,1.39812 -0.72761,2.07382 0.67675,0.47331 0.66118,1.27045 1.01512,1.8953 -0.17645,0.63522 -0.465,1.86623 0.64145,1.43133 0.48472,0.17334 0.58644,1.31923 1.35556,1.53097 1.0421,0.7276 2.16309,1.46351 3.4844,1.24866 0.78469,0.0664 1.27979,-0.61758 1.90359,-0.89368 1.07324,-0.62692 2.2264,-1.25903 3.51346,-1.18949 1.09504,-0.31865 1.07428,1.08362 1.42303,1.76451 0.19617,1.08051 0.88122,2.12572 1.85274,2.68829 0.59059,0.53662 1.14693,1.08673 0.89679,1.94927 -0.75252,-0.0291 -1.45106,-0.24392 -2.24716,-0.0965 -0.87707,0.0509 -1.73753,0.0976 -2.51599,0.52624 -0.82932,0.0706 -1.78008,-0.2024 -2.53156,0.14116 -0.70269,0.45878 -1.88595,-0.3228 -2.52637,0.4951 -0.47226,0.75771 -1.43548,0.23666 -1.98352,0.75874 0.0716,0.73176 0.62589,1.31093 0.8096,2.02816 0.75355,1.75205 2.35719,2.8419 3.80512,3.96808 0.83036,0.86461 1.86312,1.49049 2.89277,2.05929 1.02342,0.16192 2.0105,0.61965 2.85539,1.19779 0.64768,0.9518 1.97418,0.7878 2.69141,1.6192 0.68193,0.56153 1.63477,0.62484 2.26272,1.30781 0.86462,0.54078 1.76348,1.20818 1.97418,2.25443 0.55012,1.12617 1.96588,1.74791 2.02816,3.10035 0.0675,0.82932 0.69231,1.39293 1.02964,2.10289 -0.45254,0.51897 0.42764,1.07324 0.33526,1.7313 0.36224,0.74628 0.20863,1.67525 0.16399,2.48381 0.0529,0.82621 -0.10275,1.40642 -0.87083,1.85377 -0.75252,1.2279 -1.84963,2.21914 -2.68725,3.40448 -0.52936,0.60512 -1.00993,1.46143 -1.95861,1.21025 -0.95803,-0.3581 -1.34726,1.00265 -2.17243,1.13966 -0.82828,-0.16088 -1.78216,-0.0592 -2.53052,-0.4048 -0.59267,-0.40064 -1.62543,0.2543 -2.23574,-0.33318 -0.84178,0.11937 -1.14071,-0.77846 -1.95654,-0.79922 -0.72033,-0.84489 -1.81225,-1.20817 -2.57307,-2.01154 -1.16977,-0.15154 -2.19734,-0.70789 -3.24982,-1.18223 -0.80026,0.0218 -1.48115,-0.17126 -1.98041,-0.76393 -0.79091,-0.0477 -1.44171,-0.34356 -1.92643,-0.97671 -0.61446,-0.29166 -1.07947,-1.39812 -1.79461,-0.9518 -0.79922,0.009 -1.65034,-0.53662 -2.38625,0.0675 -0.69335,0.55219 -1.63684,0.57606 -2.39973,0.20759 -0.67363,-0.49303 -1.38878,-1.05352 -2.3001,-0.99228 -0.73487,-0.0924 -1.32442,-0.66948 -2.06967,-0.70373 -0.51586,-0.61343 -1.19572,-1.08466 -2.02504,-1.09088 0.0208,-0.92585 -1.14382,-0.63211 -1.67525,-1.17392 -0.94349,-0.23354 -2.17761,0.0187 -2.66441,-1.03484 -0.7494,-0.43179 0.083,-1.88076 -0.92481,-1.74271 -1.06183,-0.0571 -2.01051,-0.70373 -3.10866,-0.59164 -1.11891,-0.22938 -2.26792,-0.61758 -3.1097,-1.43029 -0.87603,0.0893 -1.56315,-0.29581 -2.16412,-0.90198 -0.70269,-0.45462 -1.18222,-1.05974 -1.0639,-1.93473 0.0789,-1.2144 -0.66013,-2.43607 -0.16918,-3.61103 0.81479,-0.008 0.96633,-0.93 1.56834,-1.26007 0.31138,-0.63003 1.20506,-0.766 1.42822,-1.49361 0.62484,-0.48472 0.95698,-1.17911 0.28855,-1.81641 -0.87292,-0.44216 -0.34772,-1.50814 -0.50341,-2.21602 -0.23769,-0.7193 -0.26572,-1.53928 -0.82102,-2.15167 -0.63211,-1.18326 -1.89322,-1.98663 -2.35095,-3.24359 0.0218,-0.73694 -0.26675,-1.51955 0.40895,-2.03645 -0.21382,-1.34518 0.48265,-2.65196 0.27609,-4.00545 0.83348,-0.0394 1.24347,-0.72967 1.24969,-1.50295 0.30828,-0.67051 0.33422,-1.47596 0.22213,-2.16723 -0.70166,-0.96322 -1.11476,-2.37898 -0.44009,-3.45637 0.0301,-0.98398 0.86149,-1.5725 1.38047,-2.31359 -0.0457,-1.00785 1.23619,-1.39604 1.64515,-2.23678 0.94453,-1.00785 2.08524,-1.86208 2.94466,-2.954 0.94038,0.21174 1.10853,-0.59994 1.84443,-0.76393 1.45313,-0.0446 2.88758,0.21381 4.33344,0.25741 0.6757,0.0664 1.27149,-0.52002 2.03127,-0.45047 0.68297,-0.63315 1.61297,-0.49614 2.47966,-0.56153 0.1204,0.10691 0.24391,0.21381 0.36639,0.32072 z m 28.11804,11.57728 c -0.51794,1.15836 -1.20818,-0.71929 0,0 z"
   class="erromango" /><path
   style="fill:#000000;stroke:#000000;stroke-width:1.03795"
   d="m 318.08245,500.82813 c 0.73176,0.0934 1.47181,0.0965 2.20564,0.18372 0.53143,0.0477 1.2061,0.87187 1.55277,0.85631 -0.0664,1.01096 0.87396,1.62439 0.95596,2.59487 0.13908,0.7193 0.48472,1.28498 0.84489,1.92332 0.137,0.76808 -0.31658,1.49983 0.0945,2.23055 0.25222,0.71618 -0.49303,1.70016 0.47849,2.05202 1.21856,0.58645 0.40688,2.14752 0.99643,3.12942 0.58956,0.85112 0.95803,1.78631 1.26734,2.76717 -0.0478,0.73383 0.50548,1.2964 0.39131,2.04684 0.14012,0.7878 1.02653,1.18533 0.7359,2.12572 -0.45358,0.75459 -0.0944,1.27252 0.12352,2.03126 0.47745,0.68712 1.40849,0.75044 2.17658,0.75148 0.81375,-0.48991 1.56107,0.57087 2.25338,0.92066 0.55634,0.5335 1.31509,0.54907 1.8434,1.14278 0.6591,0.3363 1.44275,0.26156 1.9254,0.93 0.2709,0.77431 1.18845,0.56049 1.69808,1.10542 0.7494,0.22523 0.83451,1.18015 1.72403,1.37736 0.8314,0.33214 1.559,0.9383 1.67006,1.87868 0.19514,0.72761 0.31762,1.43756 0.89887,1.96899 -0.22628,0.72968 0.083,1.67318 -0.62381,2.2482 -0.36121,0.57606 -0.164,1.49568 -1.04002,1.61401 -0.11314,0.6892 -0.32592,1.24865 -1.06286,1.62543 -0.98398,0.67155 -2.02712,1.24346 -3.0495,1.80707 -0.64872,0.10379 -1.44275,-0.0592 -2.13194,0.14739 -1.24866,-0.0779 -2.42154,0.72137 -3.68057,0.27609 -0.75355,-0.35602 -1.43133,0.0758 -2.12157,-0.28232 -0.62796,-0.42141 -1.24554,-0.77431 -2.03438,-0.6207 -0.83762,0.10795 -1.57561,0.64146 -2.3769,0.90925 -0.6072,0.45566 -0.99332,0.89679 -1.67006,0.62381 -0.64042,-0.0249 -1.34622,-0.10484 -2.00532,-0.22628 -0.64249,-0.6892 -1.53305,-0.37573 -2.02192,0.30412 -0.75355,0.60513 -1.41473,1.45105 -2.29387,1.82887 -1.14486,0.0571 -2.47655,-0.0996 -3.16886,-1.12721 -0.56464,-0.57503 -1.59636,-0.30309 -2.15789,-0.97879 -0.59994,-0.63419 -1.49257,-0.5771 -2.19319,-1.06286 -0.65391,-0.31035 -1.28291,-0.38923 -1.9638,-0.56464 -0.95076,-0.32073 -2.53052,-0.0654 -2.78378,-1.33481 -1.02653,-0.0467 -0.82724,-1.45105 -0.4048,-2.05617 -0.465,-0.54078 -0.9383,0.80752 -0.6155,1.32131 -0.43802,0.53661 -1.50607,0.52312 -1.8351,-0.20137 0.081,-0.84489 -0.48368,-1.53097 -1.25903,-1.74375 -0.64249,-0.17749 -1.37424,-1.04522 -0.45877,-1.4251 1.23723,-0.40169 0.21693,-0.79819 -0.46396,-0.15985 -0.64665,0.44217 -0.61966,1.48427 -1.38048,1.88699 -0.59786,1.07013 -0.69646,-0.70165 -1.68978,-0.22523 -0.79299,0.18994 -1.395,-0.25534 -2.08524,-0.48369 -0.64352,0.58022 -1.06389,-0.65287 -1.20506,-1.16665 -0.20759,-1.12306 -1.53824,-0.84801 -2.28037,-1.26215 -0.76082,-0.70892 -0.88226,-1.8735 -1.79461,-2.45267 -0.054,-0.91547 -1.16043,-1.0639 -1.85067,-0.76808 -0.60616,-0.27921 -1.12409,-0.86358 -1.94096,-0.75771 -0.9435,-0.0301 -1.60259,-0.97359 -1.22063,-1.85481 0.27298,-0.55842 0.88641,-1.4085 0.11002,-1.86519 -0.69542,-0.0135 -1.49776,-0.48265 -1.18326,-1.28291 0.34875,-0.76185 -0.14012,-1.42303 -0.10898,-2.18177 -0.083,-0.76808 0.98086,-0.9082 1.52786,-1.17599 1.03276,-0.26157 2.08835,0.0259 3.12319,0.0145 0.62692,-0.6809 1.48842,-1.01408 2.407,-0.8833 0.87707,-0.0187 1.56419,-0.63211 2.34265,-0.87187 0.51794,-0.63315 0.9435,-1.16562 1.6794,-1.4469 0.6975,-0.35602 1.45313,-0.70685 2.27622,-0.63731 0.61758,-0.18579 1.32028,-0.20551 1.89634,-0.69023 0.61861,0.8314 1.22581,-0.20655 1.9804,0.0664 0.86669,0.4131 1.37529,-0.93416 2.02504,-0.21797 0.53558,1.02964 1.00162,0.20447 1.81953,0.15154 0.5553,-0.51586 1.48426,-0.52624 1.38981,-1.52163 0.26987,-0.83348 1.395,-1.19987 2.16516,-0.79092 1.01096,-0.20344 0.22524,-1.16562 0.56257,-1.56315 0.57502,-0.46293 1.44898,-0.43179 1.22063,-1.54343 0.4868,-0.66325 1.03276,-0.58437 1.6576,-0.7411 1.06494,-0.1121 1.25281,-1.42822 2.00324,-2.02192 0.88537,-0.93831 1.1376,-2.26688 1.72092,-3.38268 0.31865,-0.86461 0.34668,-1.8735 0.87499,-2.62082 0.6373,-0.34356 1.17289,-0.92689 1.98041,-0.65598 0.71722,0.28751 0.87914,-0.62589 1.55796,0.008 z"
   id="path12"
   class="ambrym" /><path
   id="path11"
   style="fill:#000000;stroke:#000000;stroke-width:1.03795"
   d="m 346.72258,760.11918 c 0.70061,-1.14382 -0.003,0.31865 -0.55842,0.0758 0.61343,-0.82621 -0.75667,-1.24761 -0.25637,-1.86727 0.97982,-0.4349 -0.0581,-1.15524 -0.47746,-0.19098 -0.0737,1.24969 -0.64872,0.34979 -1.03899,-0.028 -0.6975,0.78262 -1.41265,-0.68193 -1.99494,0.36536 -0.40168,0.58437 -0.56464,1.35764 -1.21336,1.79462 -0.77742,0.61861 -0.51586,-1.06702 -0.58436,-1.56004 0.0913,-0.85423 0.23042,-1.74272 0.31865,-2.59072 0.82517,-1.37944 1.86208,-2.66961 2.5575,-4.1217 -0.50652,-0.80441 -1.37217,0.36121 -1.23827,1.01927 -0.62485,0.85527 -1.08777,1.83717 -1.50399,2.78482 -0.54596,0.46292 -1.18637,0.77638 -1.58806,1.38877 -0.49095,0.82829 -1.40538,-0.10068 -1.88388,0.58333 -0.83451,1.11891 -0.82413,0.0727 -0.88641,-0.78677 -0.68608,-0.55011 -1.15004,1.47908 -1.81744,0.328 -0.69647,-0.37989 -1.00162,1.06182 -1.69913,1.13551 -0.8096,-0.24599 -0.26052,-1.40849 0.3062,-1.73649 0.51275,-0.56256 1.38151,-0.57502 1.92747,-1.15835 0.85838,-0.39546 1.72092,-0.75355 2.4973,-1.31923 0.66325,-0.62277 0.63731,0.73591 1.71885,0.20759 0.84074,0.15154 1.65553,-0.57087 1.39708,-1.43133 0.0488,-0.78158 -0.0249,-1.50918 -0.23562,-2.23471 0.0675,-0.54907 -0.12351,-2.27518 -0.47123,-0.93 -0.25637,0.70581 -1.05767,1.14486 -1.74686,1.30263 -0.6674,-0.36225 -0.22835,-1.49154 -0.25223,-2.16932 0.19306,-0.80025 -0.12351,-1.43859 -0.57087,-2.03645 -0.61446,-0.85112 -1.48945,-1.39708 -2.45475,-1.74687 -0.94349,0.0716 -1.07946,-0.30827 -1.4251,-1.06182 -0.61862,-0.25741 -1.32442,-0.80649 -1.99079,-0.5553 -0.80648,0.87914 -2.00843,1.24969 -2.70178,2.26169 -0.88848,1.04002 -2.08005,1.72195 -2.9239,2.81076 -1.03276,0.74629 -1.00473,2.21187 -2.04372,2.96542 -0.66014,0.59682 -1.52682,0.92066 -2.41219,0.96218 -0.25638,-0.54077 0.77534,-1.63892 -0.50652,-1.58702 -0.93416,0.23769 -1.33688,-0.36225 -0.99955,-1.22374 0.28855,-0.83244 1.02861,-1.62128 1.01408,-2.49004 -0.47953,-0.45878 -1.38047,0.26156 -2.00739,0.37262 -0.76186,0.56568 -1.44691,-0.0561 -0.81376,-0.8314 0.74317,-1.25073 2.07279,-2.05306 2.57723,-3.45325 0.55323,-0.75355 0.83555,-1.6327 1.22374,-2.46202 0.14116,-0.74628 0.3747,-1.44275 0.51275,-2.2046 0.49718,-0.53143 0.24288,-1.44586 1.14589,-1.59637 0.69232,-0.83762 1.25488,-2.17242 2.55543,-2.04891 0.51275,-0.70996 1.29121,0.0177 1.66799,-0.70373 0.81375,-0.6591 1.82886,-1.25176 2.31047,-2.18384 0.0768,-0.76497 0.81479,-1.3867 0.43179,-2.24093 -0.0976,-0.76601 -0.164,-1.52786 0.13078,-2.23471 -0.0249,-0.81271 0.52209,-1.37839 1.27979,-1.54758 0.97567,-0.82413 2.4122,-0.35394 3.38891,-1.13863 -0.1121,-0.74213 0.23665,-1.60259 0.95491,-1.77282 0.86876,-0.44424 0.83036,-0.42763 -0.0592,-0.95595 -0.47642,-0.71514 0.72033,-1.14797 1.10956,-1.6358 0.64768,-0.57295 1.66176,-0.32903 2.26273,-1.01927 0.65495,-0.39546 1.08673,-1.2362 1.96691,-1.00577 0.8397,-0.12456 1.86935,0.47538 1.64931,1.42718 -0.15155,1.26422 1.34206,1.62646 1.83613,2.53571 0.72656,-0.45566 1.57872,-0.65806 2.36652,-0.94765 0.83347,-0.12871 1.51852,-0.56984 2.39143,-0.44943 1.22375,-0.18683 2.53052,-0.58956 3.4761,-1.41888 0.53558,-0.88537 1.67524,-0.40688 2.51495,-0.39131 0.80544,0.51794 1.08465,0.23354 1.942,0.23354 0.80648,0.0644 1.5891,0.21071 2.41115,0.18164 0.80857,0.78677 1.98145,1.47182 1.98664,2.73604 -0.0249,1.01719 0.99747,1.53616 1.13032,2.48381 -0.19617,0.78261 0.93935,1.15316 1.30782,1.7614 0.87395,0.76289 1.57976,1.79461 2.55751,2.39351 0.81582,0.10068 1.26629,0.83866 1.12098,1.62127 -0.25741,0.88122 0.7276,1.31924 0.57399,2.15998 0.21693,0.73902 -0.94454,1.4251 0.17541,1.81329 0.10068,0.61758 0.4432,1.41369 0.82309,1.99702 0.83451,-0.0612 1.56108,0.27817 2.14752,0.84385 -0.28544,0.7878 0.6456,1.313 1.20817,1.69705 0.83347,0.71203 1.48219,1.63995 1.98248,2.60317 -0.65806,0.45566 -0.96217,1.61713 0.17749,1.17703 0.94661,-0.67985 1.87765,0.62381 2.91456,0.35914 1.15939,0.0675 2.47032,-0.19306 3.51969,0.32176 0.63834,0.39442 0.34979,1.52371 -0.16919,1.94927 -0.29374,0.67674 -0.85631,1.17184 -1.094,1.90463 -0.301,0.64561 -0.84385,1.08258 -1.06908,1.76555 -0.66533,0.85735 -1.38047,1.67214 -2.07279,2.50354 0.66948,0.80337 0.48057,2.04891 0.0623,2.90729 -0.94972,0.50029 -0.16503,1.60779 -0.36847,2.42361 0.14324,1.59533 -1.20714,2.67687 -2.20668,3.74077 -1.15524,0.21797 -2.33642,0.35498 -3.38371,0.90613 -0.84801,0.17541 -1.79358,0.22524 -2.63224,-0.0156 -0.42452,0.53454 -0.28544,1.45417 -0.96945,1.91917 -1.13655,-0.002 -2.53363,0.18475 -3.32247,-0.81272 -1.05663,-0.85838 -0.69854,0.25845 -1.33065,0.31139 0.10068,-0.70581 -0.0727,-0.75978 -0.92066,-0.0654 -0.87915,-0.0311 -0.17126,-2.03646 -0.73072,-1.49153 -0.23354,0.54284 -0.0893,1.7178 -0.8615,1.55069 -1.04106,1.05248 -2.64365,1.71469 -4.10197,1.54032 -0.69335,-0.0861 -1.54551,0.11936 -2.29491,0.18579 -1.36697,0.35602 -3.12318,0.36847 -4.15698,-0.7577 -0.82206,-1.31716 0.17541,-2.66027 0.66325,-3.88297 0.36224,-0.91547 -0.99436,-1.05767 -1.31923,-0.383 -0.81687,0.88537 -1.59741,2.09769 -2.94674,2.10184 -0.81894,-0.61342 -0.10483,-1.35348 0.23042,-1.39707 0.0363,-0.18891 -0.0851,-0.36017 -0.11728,-0.53974 z m -7.2916,-40.68552 c -0.62173,0.53247 -1.46869,-0.32903 -2.07278,0.33837 -0.58021,0.465 -1.39812,0.40065 -1.9555,0.94765 -0.99435,0.30308 -1.00992,1.88907 -2.1963,1.74272 -0.7878,0.0737 -1.43859,0.51067 -2.25442,0.36432 -1.06078,-0.0353 -1.49257,1.04002 -2.21498,1.64618 -0.70477,0.64976 -1.32339,1.641 -2.40389,1.48219 -0.85527,-0.3612 0.0747,-1.28498 0.49406,-1.66487 0.37989,-0.67259 1.16666,-0.85838 1.64826,-1.31819 0.15881,-0.65806 -0.33733,-1.49257 -0.25222,-1.98975 -0.61031,-0.7795 0.30827,-1.31093 0.85008,-1.59117 0.56361,-0.86254 1.51437,-1.25177 2.52948,-1.16874 0.83763,0.0779 1.63374,-0.12351 2.46202,-0.15361 -0.0893,-1.04937 1.06493,-1.477 1.70535,-2.11846 0.76393,-0.23769 1.33584,-0.41102 2.01051,0.11833 0.70061,0.28336 0.84489,1.27045 1.45312,1.74894 0.29374,0.43491 0.93416,1.29018 0.19721,1.61609 z m 11.93953,-6.72487 c -1.48946,-0.0208 -3.14083,0.18994 -4.41128,-0.69127 -1.8351,-0.45463 -2.10185,-2.65196 -3.12319,-3.96393 -0.19202,-1.10749 -0.90924,-2.01777 -1.44794,-2.99033 0.002,-0.61032 0.70788,-1.30574 0.53558,-1.91709 0.79196,-1.0338 2.26792,-1.66176 3.49166,-1.10749 0.57918,0.5771 0.92378,1.42302 0.73591,2.24093 1.11994,1.62958 2.15167,3.32247 3.19896,4.98838 0.68193,0.90613 1.48945,1.88491 1.46143,3.07337 -0.14635,0.12247 -0.29478,0.24495 -0.44113,0.36743 z m -24.19355,20.40296 c -0.91132,0.0882 -1.56834,-0.63626 -2.44022,-0.70996 -0.58748,-0.46915 -1.29951,-0.7359 -1.83924,-1.25695 0.74524,-1.24865 2.15582,-2.00013 2.57203,-3.45222 -0.7961,-0.81583 0.56776,-0.82932 0.74318,-0.0343 0.0664,0.76185 0.0322,1.53512 0.71203,2.07278 0.25637,0.68712 0.54803,1.37736 0.93,1.98975 0.29063,0.73591 -0.30723,0.88122 -0.67778,1.39085 z m 41.57712,-20.89495 c -0.53974,0.60409 -0.58125,1.65657 -1.56315,1.76348 -0.71307,0.14012 -1.32443,1.06182 -2.0458,0.49717 -0.80649,-0.70788 -0.53351,-0.98812 -0.34252,-1.56003 -0.73798,0.31865 -0.56153,-0.32488 -0.33422,-1.15524 0.30308,-0.97775 1.2964,-1.70016 2.34369,-1.47285 0.70373,0.0197 1.97106,-0.14427 2.09873,0.78261 -0.0529,0.38197 -0.10483,0.76394 -0.15673,1.14486 z m -12.60485,3.43976 c -0.70373,-0.27194 -1.49361,0.57814 -1.98975,0.055 -0.59786,-0.44217 -0.3529,-1.40123 -1.06494,-1.80811 -0.5771,-0.38716 -1.27771,-1.4905 -0.0581,-1.27564 0.9601,-0.18683 1.79461,0.22939 2.5191,0.83244 0.7878,0.40064 1.09088,1.10022 0.91962,1.95238 -0.10898,0.081 -0.21693,0.16295 -0.32591,0.24391 z m -39.02688,21.24889 c -0.45255,0.71827 -1.77697,0.43075 -0.63107,-0.20032 0.55011,-0.28544 1.28705,-1.21544 1.76451,-1.07012 0.29997,0.60823 -0.711,1.01719 -1.13344,1.27044 z m 21.02884,16.56567 c -0.95491,0.82413 -0.41102,-0.49822 -0.0156,-0.88952 1.09919,-0.10276 0.54804,0.50963 0.0156,0.88952 z m 16.65908,-35.68884 c -1.38047,0.24185 0.3664,-1.11268 0,0 z"
   class="efate" />
<path
   d="m 624.88728,1021.7614 c -0.73872,0.6031 0.45955,1.5704 0.4538,2.0736 -0.49286,0.841 -1.49467,0.8617 -2.08288,1.5786 -0.68358,0.4216 -0.20105,1.9416 -1.29592,1.3131 -1.03283,0.2631 -1.53947,-0.1953 -1.6624,-1.2109 -0.11719,-0.7594 -1.33728,-1.1741 -1.33843,-1.8209 0.96505,-0.3286 0.58133,-1.3315 0,-1.968 1.37864,-0.3332 2.72625,0.2631 4.11523,-0.047 0.72723,0.2217 1.56704,-1.4097 1.93238,-0.4917 -0.031,0.193 -0.0781,0.3825 -0.12178,0.5733 z"
   id="path63"
   class="futuna" /></g>

<g
   id="layer3"
   transform="translate(0,103.63782)"
   inkscape:label="Scale"
   inkscape:groupmode="layer">
	
</g>

</svg>
